<?xml version="1.0" encoding="UTF-8"?>
<!DOCTYPE svg PUBLIC "-//W3C//DTD SVG 1.1//EN" "http://www.w3.org/Graphics/SVG/1.1/DTD/svg11.dtd">
<!-- Creator: CorelDRAW X8 -->
<svg xmlns="http://www.w3.org/2000/svg" xml:space="preserve" width="5.08cm" height="5.08cm" version="1.1" style="shape-rendering:geometricPrecision; text-rendering:geometricPrecision; image-rendering:optimizeQuality; fill-rule:evenodd; clip-rule:evenodd"
viewBox="0 0 5080 5080"
 xmlns:xlink="http://www.w3.org/1999/xlink">
 <defs>
  <style type="text/css">
   <![CDATA[
    .fil0 {fill:black}
   ]]>
  </style>
 </defs>
 <g id="Layer_x0020_1">
  <metadata id="CorelCorpID_0Corel-Layer"/>
  <g id="_2104309568960">
   <path class="fil0" d="M380 2588c-8,-43 4,-90 6,-125 9,-165 6,-191 41,-365 29,-144 77,-290 130,-413 94,-217 260,-475 433,-647 205,-204 447,-382 720,-490 34,-14 62,-26 99,-38 162,-55 247,-80 431,-107 38,-5 81,-7 124,-13 43,-6 88,0 130,-7 33,-5 215,7 254,10 207,14 468,87 646,165 182,79 351,182 502,304 294,238 552,587 674,948 55,162 80,247 106,431 6,38 8,80 14,124 6,41 2,92 7,129 5,30 -7,217 -10,255 -14,206 -87,467 -165,646 -71,162 -239,447 -367,576 -25,25 -40,46 -66,71 -93,93 -180,170 -288,249 -108,78 -215,142 -341,202l-396 141c-183,40 -188,33 -349,56 -43,7 -88,1 -130,7 -33,5 -215,-7 -254,-9 -207,-14 -468,-88 -646,-165 -129,-57 -236,-117 -347,-191 -57,-37 -103,-72 -155,-114l-145 -128c-205,-205 -382,-447 -491,-721 -13,-33 -25,-61 -38,-99l-33 -98c-11,-33 -23,-74 -30,-107 -40,-184 -34,-189 -57,-349 -9,-64 4,-58 -9,-128zm-298 -119c0,289 17,517 102,780 65,203 119,336 225,520 61,105 134,216 211,309 13,15 23,28 35,42 42,52 100,107 123,134 45,54 23,22 57,56 14,15 24,25 39,39 16,17 21,20 38,34 16,13 24,24 41,36 194,150 311,242 544,350 137,64 285,117 441,156 308,77 633,95 949,50 252,-35 467,-104 690,-204 69,-30 131,-67 196,-103 35,-20 60,-35 92,-56l415 -331 105 -116c14,-17 21,-22 36,-41 44,-56 88,-105 130,-169l60 -89c21,-33 36,-57 56,-93 37,-64 73,-127 104,-195 62,-141 114,-278 155,-441 103,-415 98,-901 -31,-1306 -102,-322 -271,-659 -505,-909l-107 -119 -239 -209c-87,-64 -171,-127 -268,-180 -34,-18 -59,-36 -95,-53 -189,-94 -320,-151 -540,-206 -561,-140 -1115,-79 -1639,154 -137,61 -256,138 -378,219 -85,58 -210,162 -283,236l-216 232c-118,149 -241,335 -317,506 -127,286 -226,631 -226,967z"/>
   <path class="fil0" d="M2426 2248c0,-39 57,-96 90,-96 37,0 117,103 168,154l627 668c38,41 74,66 13,118 -69,57 -72,46 -186,-77l-92 -98c-35,-43 -160,-164 -203,-215 -1,-1 -2,-2 -3,-3l-5 -7c-33,-40 -71,-68 -101,-108l-157 -165c-21,-21 -31,-37 -51,-56 -17,-17 -100,-96 -100,-115zm-268 -286c0,-46 0,-34 34,-68 38,-39 66,-39 108,3 61,62 89,98 30,141 -38,28 -56,55 -99,12l-47 -49c-11,-12 -26,-26 -26,-39zm-525 208l350 372c17,21 23,28 42,47l53 55c1,1 4,5 5,6 4,4 2,3 6,7l896 953c18,17 31,33 50,46l57 -50c1,-1 2,-3 3,-3 1,-1 2,-2 3,-3l332 -313c14,-14 24,-24 39,-38l120 -113c25,-22 60,-50 78,-77 -18,-12 -31,-26 -46,-43l-236 -254c-9,-9 -14,-14 -24,-23l-832 -886c-16,-17 -28,-29 -45,-45 -56,-56 -190,-211 -225,-234 -29,20 -49,49 -76,73l-239 221c-26,26 -46,49 -76,72l-200 189c-15,11 -30,20 -35,41z"/>
   <path class="fil0" d="M976 3250c0,62 49,91 83,132 41,49 96,94 138,142l479 494c11,11 14,15 22,25 36,43 64,66 126,66 36,0 81,-54 103,-76l528 -509c1,-1 2,-2 3,-3l34 -32c26,-25 68,-49 77,-84 -22,-34 -59,-61 -87,-92 -61,-66 -37,-52 -193,98l-368 354c-47,46 -61,58 -127,58 -49,0 -123,-84 -149,-119l-170 -177c-1,-1 -2,-2 -3,-3 -42,-45 -90,-85 -130,-132l-31 -35c-57,-59 -63,-112 -18,-178 23,15 41,37 60,58l57 62c28,27 91,106 133,106 43,0 79,-34 76,-76 -2,-41 -38,-68 -62,-92 -23,-23 -146,-148 -151,-166 12,-18 30,-35 54,-42 26,39 125,140 169,183 1,1 2,2 3,3 17,18 33,35 63,39 46,7 81,-34 81,-75 0,-45 -70,-103 -100,-133 -41,-41 -83,-76 -115,-124l40 -43c27,8 47,35 62,54 21,26 34,39 58,62 78,78 82,106 156,106 32,0 54,-48 54,-78 0,-41 -77,-103 -103,-129l-112 -121 43 -47c45,29 107,109 147,149 1,1 3,2 3,3 1,1 3,2 3,3 1,0 7,8 9,9 35,39 54,62 111,62 15,0 20,-8 34,-20 40,-34 -1,-64 -29,-92 -39,-39 -68,-74 -107,-113 -11,-10 -18,-17 -27,-27l-78 -84c-36,-36 -66,-83 -109,-112 -33,9 -70,64 -98,87l-94 91c-17,16 -29,28 -45,45 -9,9 -15,15 -24,23l-329 315c-47,43 -150,123 -150,185z"/>
   <path class="fil0" d="M2581 1663c10,36 73,88 100,115l248 266c23,23 53,49 73,75 18,24 50,66 81,68 66,3 110,-76 45,-146l-223 -230c-32,-32 -62,-61 -91,-94 26,-39 100,-107 140,-141l13 -10c13,-11 19,-18 30,-30l156 -149c12,-11 20,-21 32,-33 48,-48 118,-55 171,-6 42,41 83,79 119,125 37,46 96,92 136,139l8 9c42,50 92,92 135,140 29,33 -24,-25 6,7 2,3 8,9 8,9l6 6c104,117 25,168 -64,258l-370 357c-17,16 -24,15 -37,35 8,14 105,126 131,143 12,-8 12,-10 23,-19l518 -496c44,-41 134,-112 134,-171 0,-33 -15,-62 -36,-84l-680 -704c-16,-17 -34,-40 -54,-53 -65,-43 -106,-13 -151,28l-65 60c-44,37 -81,82 -123,122 -17,17 -27,21 -44,39 -16,15 -27,26 -42,42 -28,28 -52,52 -81,80 -17,18 -27,22 -43,40l-124 121c-28,25 -64,52 -85,82z"/>
   <path class="fil0" d="M1352 1616l-107 -114c24,-36 185,-179 231,-222l139 -136 113 120 -91 88c-19,18 -26,25 -47,42l-238 222zm-280 -114c0,103 69,143 117,199l78 83c30,30 56,66 79,82l315 -294c27,-24 48,-50 75,-74l237 -223c-7,-28 -74,-90 -110,-128 -100,-108 -135,-170 -266,-170 -83,0 -154,99 -196,132l-238 222c-46,46 -91,81 -91,171z"/>
   <path class="fil0" d="M3619 3805c-24,0 -49,-17 -70,-25 -12,-4 -23,-7 -36,-12l-180 -70c23,-35 254,-241 312,-297 16,-16 28,-31 46,-43 1,31 12,45 20,74l45 147c9,29 17,45 24,77 -21,14 -158,149 -161,149zm-501 -60l477 180c70,27 248,107 305,107 49,0 89,-42 89,-90 0,-31 -43,-163 -56,-200 -19,-58 -182,-561 -182,-593 -24,2 -61,42 -84,65l-160 151c-13,14 -24,26 -38,39l-336 314c-16,15 -13,1 -15,27z"/>
   <path class="fil0" d="M1406 1926c6,22 22,31 37,46 36,36 104,120 130,127 10,-7 -1,1 9,-9l7 -6c0,0 2,-2 3,-2l99 -92c14,-12 25,-25 39,-39l469 -449c-25,-17 -48,-51 -79,-82l-82 -85c-21,6 -25,17 -40,32l-592 559z"/>
   <path class="fil0" d="M3345 1669c128,0 114,185 18,185l-36 0c-93,0 -111,-185 18,-185zm-18 334c76,0 148,-16 197,-77 22,-28 31,-35 45,-74 49,-131 -14,-262 -127,-310 -95,-40 -195,-20 -266,48 -46,44 -69,98 -73,165 -4,71 27,131 62,172l67 52c23,13 61,24 95,24z"/>
  </g>
 </g>
</svg>
