<?xml version="1.0" encoding="UTF-8"?>
<!DOCTYPE svg PUBLIC "-//W3C//DTD SVG 1.1//EN" "http://www.w3.org/Graphics/SVG/1.1/DTD/svg11.dtd">
<!-- Creator: CorelDRAW X8 -->
<svg xmlns="http://www.w3.org/2000/svg" xml:space="preserve" width="5.08cm" height="5.08cm" version="1.1" style="shape-rendering:geometricPrecision; text-rendering:geometricPrecision; image-rendering:optimizeQuality; fill-rule:evenodd; clip-rule:evenodd"
viewBox="0 0 5080 5080"
 xmlns:xlink="http://www.w3.org/1999/xlink">
 <defs>
  <style type="text/css">
   <![CDATA[
    .fil0 {fill:black}
   ]]>
  </style>
 </defs>
 <g id="Layer_x0020_1">
  <metadata id="CorelCorpID_0Corel-Layer"/>
  <g id="_2068712433280">
   <path class="fil0" d="M1051 1932l8 -228c9,-45 50,-20 116,-30 26,-4 2954,-9 3031,1l159 6c0,26 5,35 5,66 0,22 -2,53 1,74 14,124 3,537 -13,647 -36,247 -123,499 -246,702 -123,204 -187,271 -351,433 -54,54 -156,132 -218,179 -11,8 -42,25 -42,38l0 1020 -1581 0 0 -713 -793 0 0 -959c0,-21 -75,-28 -118,-39 -45,-11 -85,-19 -131,-30 -47,-10 -223,-46 -253,-62 7,-32 62,-124 81,-159 7,-12 10,-21 17,-33l179 -318c49,-88 94,-168 143,-255 43,-77 33,-43 18,-151 -8,-59 -12,-124 -12,-189zm440 -1852l26 0c23,1 43,5 67,5 203,3 415,152 524,309 58,84 128,237 128,349l10 0c2,-23 15,-56 22,-79 8,-28 16,-54 22,-78 15,-53 29,-99 44,-153 25,-87 68,-218 88,-303 28,2 543,229 592,251 26,12 176,70 191,90 -8,11 -216,125 -221,126 10,43 74,171 96,216 17,35 31,70 48,107 15,30 39,71 47,104 67,0 135,1 201,0 57,-1 100,-37 114,-82 23,-78 11,-282 11,-385l-155 0 0 -477 482 0 0 477 -161 0c0,87 2,181 -5,261 -3,36 5,98 -1,129 -3,18 -34,69 -44,87 -16,27 -36,49 -59,71 -80,81 -179,89 -303,89 8,15 12,25 19,42 7,15 12,22 18,37 19,45 97,196 104,228 128,0 245,5 377,5 9,-40 27,-69 43,-108 14,-36 28,-66 43,-102l265 -619c30,-68 59,-136 89,-207 25,-58 18,-45 65,-80l399 -300c17,-12 2,-8 24,-10l0 0c0,1 0,3 0,4l0 553c-3,38 -340,795 -356,864 170,14 146,-23 162,59 15,76 21,165 24,247 0,25 4,25 5,50 1,35 -1,71 0,106 0,26 4,27 5,50l0 161c0,37 -5,62 -5,105 0,170 -45,389 -99,549 -52,156 -117,306 -201,447 -53,89 -114,172 -178,253l-212 221c-32,27 -147,133 -179,142l0 1109 -1908 0 0 -713 -793 0 0 -999c-37,-18 -107,-27 -149,-36l-147 -34c-58,-14 -239,-50 -291,-75 2,-33 129,-246 157,-295l162 -290c10,-17 18,-33 27,-48 9,-17 17,-32 27,-49l108 -193c16,-27 48,-70 45,-103 -26,-225 -16,-410 20,-630 5,-34 11,-25 51,-24l146 -5c0,-213 -13,-63 -181,-302 -74,-104 -116,-216 -130,-347 -15,-141 19,-277 81,-394 27,-50 64,-98 103,-139 79,-82 168,-156 277,-199 78,-31 117,-31 198,-43 7,-1 14,-2 21,-2zm1152 1426l-246 0c0,-39 5,-194 12,-219 13,-53 78,-93 144,-93 27,0 29,5 55,5 7,32 19,46 31,74 13,29 23,48 35,76 9,23 21,49 33,73 9,21 27,59 31,79 -38,0 -56,5 -95,5zm146 -307c22,0 19,-5 45,-5l120 0c49,0 78,5 126,5 5,22 22,49 32,74 12,28 23,45 35,75 15,36 63,124 63,153 -24,2 -13,5 -55,5 -85,0 -151,-5 -236,-5l-99 -223c-9,-19 -29,-59 -31,-79zm-558 307l-311 0c0,-152 -14,-100 69,-172 100,-87 172,-202 214,-328 33,-99 -1,-63 139,-133 22,-11 72,-40 95,-45 5,20 48,101 62,134 8,19 15,32 22,49 13,32 1,11 -73,44 -139,63 -213,162 -212,320 0,51 -5,84 -5,131zm-713 -789c109,0 98,132 33,149 -133,36 -140,-149 -33,-149zm2646 789l-216 0c4,-15 17,-41 24,-57l368 -857 170 82c-1,17 -165,405 -170,415 -30,69 -148,363 -176,417zm-2882 -713c0,92 64,163 133,208 10,7 23,14 23,28l0 477 -151 0c0,-270 28,-177 -110,-281 -68,-52 -142,-148 -172,-231 -51,-144 -47,-302 18,-441 35,-75 58,-104 112,-158 234,-234 655,-194 839,77 163,240 124,572 -92,740 -23,17 -99,76 -123,83l0 211 -155 0 0 -477c0,-11 -6,-4 21,-24 56,-41 134,-112 134,-187 0,-83 -11,-125 -76,-190 -98,-98 -231,-94 -327,3 -33,33 -74,99 -74,162zm1486 -276c14,58 223,476 226,512l-286 0 -98 -213c-16,-39 -33,-70 -49,-107l-49 -107c-15,8 -39,23 -60,25 0,-31 42,-166 53,-203 5,-12 7,-22 11,-34 5,-14 8,-19 11,-34 35,1 252,109 302,120l0 10c-24,6 -41,20 -61,31zm1763 -111c1,66 7,3 0,91l-76 -36c9,-12 60,-44 76,-55zm-1024 -166l155 0 0 156 -155 0 0 -156z"/>
   <path class="fil0" d="M1634 2299c116,0 123,8 226,-45 118,-61 221,-203 221,-352l-126 0c-17,0 -19,4 -35,5 -4,18 -4,29 -7,49 -16,90 -108,182 -209,182 -106,0 -193,-25 -240,-136 -11,-24 -20,-63 -21,-95 -16,-1 -18,-5 -35,-5l-126 0c0,110 54,208 109,263 57,55 154,134 243,134z"/>
  </g>
 </g>
</svg>
