<?xml version="1.0" encoding="UTF-8"?>
<!DOCTYPE svg PUBLIC "-//W3C//DTD SVG 1.1//EN" "http://www.w3.org/Graphics/SVG/1.1/DTD/svg11.dtd">
<!-- Creator: CorelDRAW X8 -->
<svg xmlns="http://www.w3.org/2000/svg" xml:space="preserve" width="5.08cm" height="5.08cm" version="1.1" style="shape-rendering:geometricPrecision; text-rendering:geometricPrecision; image-rendering:optimizeQuality; fill-rule:evenodd; clip-rule:evenodd"
viewBox="0 0 5080 5080"
 xmlns:xlink="http://www.w3.org/1999/xlink">
 <defs>
  <style type="text/css">
   <![CDATA[
    .fil0 {fill:black}
   ]]>
  </style>
 </defs>
 <g id="Layer_x0020_1">
  <metadata id="CorelCorpID_0Corel-Layer"/>
  <g id="_2068712759056">
   <path class="fil0" d="M1635 3928l0 0zm0 0c-13,-3 -22,-9 -35,-14 -11,-5 -21,-10 -33,-16l-129 -70c-54,-32 -85,-50 -135,-89l-28 -21c-48,-34 -88,-72 -126,-101 -22,-17 -105,-99 -124,-124 -5,-7 -5,-6 -11,-13 -3,-3 -2,-2 -5,-5l-8 -10c-1,-1 -2,-3 -3,-4 -74,-86 -104,-122 -168,-220 -8,-13 -34,-52 -37,-64l569 0c0,21 18,83 24,106 3,11 4,15 6,25 15,60 26,103 47,166 49,148 80,231 150,367 8,16 16,26 24,43 7,15 18,29 22,44zm-336 -1121l-674 0c0,0 -51,-197 -58,-252 -19,-132 -18,-131 -22,-251 0,-18 -4,-20 -4,-38 1,-17 4,-18 4,-35 1,-13 0,-26 0,-39 0,-110 35,-315 67,-418l13 -50 674 0c-8,39 -28,289 -27,329 0,27 -4,41 -4,69 0,52 -3,95 -3,144l7 206c0,62 16,285 27,335zm1041 -2354c78,0 103,9 171,49 18,11 38,27 54,41 39,37 17,11 55,56l12 13c56,64 112,150 151,226 69,139 98,219 146,367 8,23 39,131 40,149l-1223 0c1,-32 50,-178 63,-217 20,-61 53,-144 78,-201l62 -127c51,-97 119,-189 200,-264 44,-41 130,-92 191,-92zm741 150l134 65c66,35 122,70 183,113l206 168c1,1 1,1 2,2 8,7 -4,-4 4,3l161 177c5,5 7,9 11,14l42 55c4,5 6,10 10,15 6,7 7,7 13,15 14,21 27,41 40,61l39 63 -570 0c-16,-70 -33,-138 -51,-203 -23,-80 -38,-119 -63,-195 -21,-62 -48,-125 -74,-181 -27,-59 -65,-121 -87,-172zm-1719 751l-572 0c18,-35 44,-72 66,-104 38,-54 77,-107 120,-157 4,-5 7,-7 12,-12l42 -48c42,-45 40,-49 92,-93l54 -48c10,-9 17,-13 27,-22l56 -45c67,-50 144,-109 219,-144l157 -78c-4,14 -34,64 -43,83 -93,187 -103,225 -165,408l-27 102c-7,29 -36,135 -38,158zm-1184 856c0,122 4,244 20,361 6,42 13,75 20,116 2,8 3,19 4,24l31 129c13,53 31,103 48,155 38,114 92,219 148,324 36,69 90,158 136,219l52 68c41,49 80,101 126,146l43 48c6,7 0,1 5,5 5,6 12,12 18,17l337 271c32,24 69,44 104,63 8,5 15,9 23,13l181 91c30,13 60,28 93,39 68,25 134,51 204,69 9,2 16,4 24,7 77,25 250,54 312,59 61,4 113,13 175,13l150 0c7,0 12,0 19,-1 145,-6 281,-30 423,-61 4,-1 10,-2 16,-5 16,-5 8,4 12,-9 10,-17 4,-455 4,-471 0,-158 0,-317 0,-475l-11 0c0,13 -12,45 -17,56l-23 62c-27,80 -102,211 -147,278 -20,31 -40,56 -62,85l-34 39c-60,58 -147,133 -237,133 -69,0 -118,-13 -171,-49l-40 -29c-6,-5 -9,-6 -14,-11 -44,-32 -102,-104 -131,-148 -25,-38 -52,-76 -72,-117 -32,-62 -64,-124 -89,-190 -8,-21 -19,-45 -27,-67l-48 -141c-12,-35 -39,-116 -40,-149l1163 0 0 -360c0,-18 -52,-10 -66,-10l-1170 0c-11,-45 -24,-175 -24,-220l-2 -18c-11,-46 -1,-80 -7,-135 -4,-37 -6,-266 -2,-308 7,-62 4,-62 7,-126 0,-14 3,-17 4,-32 1,-11 1,-16 2,-28 2,-27 5,-49 7,-73 4,-48 14,-95 18,-143l1369 0 24 190c3,26 2,42 5,68 1,17 4,46 6,64 1,11 0,23 0,35 0,17 3,17 4,34 0,23 -2,48 0,70 1,23 3,42 3,70l-3 116c-1,19 -4,20 -4,38 17,-2 28,-15 41,-26 40,-32 83,-55 130,-75 47,-21 110,-38 164,-39 35,-1 43,9 37,-29 -6,-36 0,-96 -2,-135 0,-21 -3,-37 -3,-63l-8 -128c-3,-18 -5,-43 -6,-64 -2,-20 -6,-43 -7,-63 -2,-22 -7,-44 -7,-63l674 0c0,22 9,37 14,56 56,214 66,311 66,542 0,107 -18,198 -35,300 -4,24 26,32 55,54l66 45c11,8 22,16 32,24l99 72c17,11 53,41 69,46 3,-27 28,-103 34,-134 9,-49 18,-93 26,-142 15,-92 19,-169 22,-256l0 -162c0,-56 -11,-117 -14,-171 -2,-29 -10,-77 -17,-112 -15,-83 -34,-163 -57,-242l-61 -177c-7,-17 -13,-30 -20,-46l-31 -71c-5,-10 -7,-12 -12,-23l-125 -228c0,0 -1,-1 -1,-2 -33,-49 -64,-100 -102,-146 -11,-12 -20,-25 -29,-37l-93 -110c-11,-14 -19,-21 -32,-34 -6,-6 -12,-11 -17,-18 -7,-8 -8,-10 -16,-19 -6,-6 -10,-10 -16,-15l-52 -49c-41,-42 -113,-101 -157,-134 -108,-79 -218,-147 -336,-212l-70 -34c-63,-28 -124,-57 -190,-79 -51,-17 -99,-34 -152,-47l-105 -25c-210,-42 -306,-52 -531,-52 -142,0 -316,23 -454,59l-31 6c-10,2 3,-1 -10,3l-65 19c-70,20 -133,42 -200,69 -124,49 -238,115 -352,182 -71,42 -173,115 -234,171 -11,11 -25,19 -36,30 -6,6 -10,10 -16,16 -8,8 -11,9 -19,16 -48,39 -119,120 -166,169 -30,31 -89,109 -119,147l-55 81c-4,6 -9,11 -13,17 -49,74 -91,154 -131,233 -5,9 -9,15 -12,23l-42 91c-4,9 -6,15 -10,25 -4,9 -5,13 -9,22 -3,9 -7,15 -10,25l-65 201c-42,147 -75,381 -75,519z"/>
   <path class="fil0" d="M3262 2810l0 1614c0,32 4,60 13,85 41,120 220,179 326,41 16,-22 36,-42 52,-63l253 -300c8,-9 9,-6 13,-18 10,7 13,20 19,33l344 686c48,97 156,129 243,88 4,-1 11,-6 16,-10 54,-32 90,-95 90,-158 0,-64 -67,-174 -94,-231 -2,-4 -3,-7 -5,-12l-13 -25c-3,-6 -3,-6 -6,-12l-259 -513c-19,-36 -17,-22 83,-42l434 -79c2,-1 7,-4 12,-6l38 -18c59,-34 97,-121 73,-202 -13,-46 -47,-73 -77,-104 -7,-7 -12,-8 -20,-15 -9,-6 -10,-9 -20,-15l-652 -465c-1,-1 -4,-3 -5,-4l-346 -246c-15,-11 -27,-21 -43,-31 -10,-6 -11,-8 -21,-14l-149 -109c-51,-44 -134,-52 -196,-21 -55,27 -103,91 -103,166z"/>
  </g>
 </g>
</svg>
