<?xml version="1.0" encoding="UTF-8"?>
<!DOCTYPE svg PUBLIC "-//W3C//DTD SVG 1.1//EN" "http://www.w3.org/Graphics/SVG/1.1/DTD/svg11.dtd">
<!-- Creator: CorelDRAW X8 -->
<svg xmlns="http://www.w3.org/2000/svg" xml:space="preserve" width="15.5cm" height="17cm" version="1.1" style="shape-rendering:geometricPrecision; text-rendering:geometricPrecision; image-rendering:optimizeQuality; fill-rule:evenodd; clip-rule:evenodd"
viewBox="0 0 15500 17000"
 xmlns:xlink="http://www.w3.org/1999/xlink">
 <defs>
  <style type="text/css">
   <![CDATA[
    .str0 {stroke:#A8FF21;stroke-width:7.62}
    .fil0 {fill:none}
    .fil2 {fill:#FEFEFE}
    .fil3 {fill:#A8FF21}
    .fil1 {fill:white}
   ]]>
  </style>
 </defs>
 <g id="Layer_x0020_1">
  <metadata id="CorelCorpID_0Corel-Layer"/>
  <rect class="fil0" width="15500" height="17000"/>
  <path class="fil1" d="M6680 9867l0 -185c110,3 441,162 809,162 432,0 813,2 1202,-185 0,314 9,506 96,737 206,545 648,919 1201,1086 94,29 112,8 159,73l-1015 70c-386,31 -1976,82 -2366,28 -132,-18 -818,-25 -1070,-62 -181,-26 -359,-22 -518,-59 4,-4 12,-13 14,-9 2,5 12,-7 15,-8 4,-2 25,-12 32,-14l225 -76c657,-234 1216,-863 1216,-1558zm1086 -693c-688,0 -1106,-193 -1485,-619 -283,-319 -542,-896 -641,-1323 1065,0 1444,156 1863,-495 345,-538 280,298 901,458 268,70 981,37 1327,37 -151,316 -120,648 -633,1308 -286,368 -831,634 -1332,634zm-993 -2635l-1850 0c-209,0 -346,-263 -346,-486l0 -1179c0,-296 161,-508 462,-508l5293 0c301,0 463,217 463,508l0 1179c0,223 -138,486 -347,486l-1849 0c-208,0 -146,-648 -994,-648 -523,0 -681,648 -832,648zm-2058 -2797c-379,31 -809,562 -809,1063l0 1318c0,288 159,609 306,757 198,199 426,345 734,352 146,625 418,1278 816,1750 90,106 143,97 184,255 109,416 108,856 -180,1195 -307,362 -827,451 -1272,578 -239,68 -462,152 -689,236 -186,69 -147,53 -357,4 -381,-91 -719,-168 -1094,-293 -253,-85 -1185,-414 -1291,-558l662 -355c119,-60 221,-115 331,-177 116,-66 209,-141 209,-323 0,-346 88,-994 -231,-994 -371,0 -278,393 -278,901l-703 383c-59,36 -189,111 -244,126l0 -6010c345,-231 878,-458 1315,-604 55,-18 118,-45 169,-61 531,-167 782,-221 1336,-352 878,-209 2586,-370 3467,-370 1673,0 2782,-1 4452,333 662,132 1516,347 2119,608l641 284c-72,98 -1015,517 -1132,648 -120,136 -70,728 -70,1016 0,272 347,328 464,163 75,-106 45,-671 45,-856l947 -509 0 5710c-319,-169 -628,-340 -947,-509 0,-166 28,-2418 -23,-2520 -111,-226 -486,-172 -486,162l0 2451c0,252 251,357 524,493l327 181c61,38 294,168 351,181 -73,99 -460,239 -600,301 -207,92 -454,177 -674,251 -223,75 -459,142 -700,202 -139,34 -229,56 -374,88 -143,31 -235,81 -370,28 -583,-231 -925,-277 -1394,-434 -753,-252 -957,-815 -780,-1537 50,-203 36,-154 160,-280 218,-223 380,-526 510,-807 143,-309 259,-638 339,-979 565,-12 1040,-551 1040,-1133l0 -1294c0,-818 -771,-1069 -787,-1085 -49,-49 -53,-185 -65,-259 -17,-107 -47,-173 -50,-274 -75,0 -706,-76 -739,-93 3,154 138,370 138,601l-4553 0c0,-258 122,-407 138,-601 -99,48 -510,38 -658,82 -114,33 -98,136 -123,246 -20,84 -49,231 -51,320zm1618 -1665c67,-100 400,-282 546,-332 493,-171 1087,-176 1578,-12 154,51 500,234 581,344 -228,0 -418,-23 -671,-23 -256,0 -423,-23 -670,-23l-1018 22c-135,2 -190,24 -346,24zm-6033 1711l0 6680c0,48 66,125 101,153 660,521 2135,929 2918,1128 781,198 2010,343 2829,384 103,5 111,22 231,24 89,1 187,-8 275,2 635,71 2825,-6 3553,-106 700,-95 1153,-147 1845,-304 538,-122 1871,-511 2391,-823 129,-77 628,-312 628,-458l0 -6680c0,-102 -54,-144 -115,-186 -641,-446 -1678,-825 -2432,-1012 -1111,-274 -1320,-277 -2398,-422 -104,-14 -125,-72 -181,-142 -109,-136 -191,-214 -312,-336 -369,-372 -1039,-745 -1774,-745 -581,0 -838,-5 -1365,230 -401,179 -779,492 -1046,826 -168,210 -120,154 -434,190 -1081,125 -1851,291 -2868,600 -92,28 -142,55 -236,87 -284,96 -1610,600 -1610,910z"/>
  <path class="fil2" d="M12066 12202c24,21 -5,1 40,29l146 85c499,288 888,525 1251,1015 603,814 89,1830 782,1830 155,0 297,-170 301,-324l-74 -574c-54,-438 -95,-663 -265,-1006 -205,-411 -540,-751 -890,-1029 -452,-361 -322,-267 -829,-142 -154,39 -308,80 -462,116z"/>
  <path class="fil2" d="M855 14883c0,272 589,478 675,-42 28,-171 46,-365 69,-554 115,-943 541,-1334 1285,-1835 105,-71 355,-191 398,-250 -15,-7 -876,-231 -878,-231 -93,0 -635,471 -760,627 -308,386 -558,631 -671,1271l-118 1014z"/>
  <path class="fil2" d="M1109 4204c0,251 156,269 447,432 77,43 108,78 200,100l0 2773c0,412 -80,717 278,717 128,0 231,-133 231,-254l0 -3329c0,-258 -214,-302 -383,-403 -326,-193 -490,-346 -686,-203 -50,36 -87,87 -87,167z"/>
  <path class="fil2" d="M13106 6169c0,192 -11,439 278,439 278,0 231,-349 231,-509 0,-285 -509,-354 -509,70z"/>
  <g id="_1950269318976">
   <path class="fil3" d="M4969 5443l0 -546c2,1 12,10 13,12l37 39c2,2 3,4 5,6 10,13 15,20 23,34 16,25 32,64 40,93 3,13 8,39 9,53l2 36 -3 47c-2,15 -5,29 -8,42 -5,21 -17,54 -28,73 -11,21 -24,42 -40,61 -12,15 -31,36 -46,47 -2,2 -2,3 -4,3zm30 -932l0 0c2,1 3,2 5,2 11,5 22,11 33,17 20,11 39,22 56,36l23 19c13,11 25,23 36,36 1,1 2,2 3,3 4,3 10,12 13,16 36,47 63,104 77,163 2,7 3,15 5,23 1,7 0,47 0,57 0,51 1,103 0,155 0,4 0,4 2,6l10 11c2,1 3,2 4,3 6,5 11,11 16,16l2 1c6,5 12,13 18,18 1,1 2,1 3,3 3,2 5,6 8,6 1,-1 2,-2 3,-3 2,-1 2,-2 4,-3 6,-7 12,-14 19,-20l3 -3c7,-5 15,-15 21,-20 -2,-9 -6,-19 -9,-28 -5,-12 -9,-23 -15,-33l-13 -24c-2,-4 -9,-14 -10,-17l76 0 10 20c13,25 21,52 28,80 2,6 3,11 4,16 1,5 1,5 -2,8l-34 35c-2,2 -4,3 -6,5l-7 7c-6,6 -23,24 -27,27 3,4 35,35 40,40l29 29c6,6 8,6 7,12 -2,12 -5,22 -8,32 -2,11 -6,21 -9,31 -4,9 -7,19 -12,28 -2,5 -12,24 -12,27l-76 0c0,-5 4,-9 6,-13 9,-16 18,-31 26,-48 5,-13 11,-27 14,-41l-51 -50c-6,4 -22,22 -30,30l-2 1c-9,9 -19,19 -28,28l-3 3c-1,0 0,0 -1,0l0 244 -8 5c-9,6 -18,11 -28,16 -1,1 -2,1 -4,2 -3,1 -5,2 -8,4 -4,2 -13,6 -17,7l0 -294c0,-5 -1,-9 2,-12 22,-21 45,-45 66,-66l10 -10c0,0 1,0 1,0l1 -2c1,-1 0,0 1,-1 2,-1 0,0 2,-1 -1,-3 -4,-5 -7,-7l-72 -72c-4,-5 -4,-3 -4,-12 0,-37 -1,-209 0,-218 1,-5 1,-11 0,-15l-10 -37c-3,-11 -6,-22 -11,-32l-1 -3c0,89 0,178 0,267 0,36 -1,73 0,109 0,5 1,10 1,15 0,12 2,28 1,41 -1,4 -1,11 -1,16 -3,27 -4,44 -11,71 -3,9 -5,18 -8,26 -11,34 -23,61 -41,92 -3,4 -5,7 -7,10 -6,10 -13,20 -21,29 -7,9 -14,19 -23,27 -1,1 -1,1 -2,2l-2 3c-4,4 -8,8 -12,12 -3,2 -5,5 -9,8 -3,2 -6,5 -9,8l-48 35c-6,3 -10,6 -15,9 -2,1 -4,2 -5,3 -8,5 -36,20 -45,22l0 0 0 -777c5,1 11,4 16,7l15 7c2,2 4,3 7,4 3,2 5,3 7,4 6,4 12,9 17,11 2,1 3,1 4,2 3,1 5,3 7,4l32 24c2,2 4,3 6,5l18 16c5,4 9,8 13,13l1 0c0,0 0,0 0,1l2 1c0,1 0,1 1,1l21 24c10,13 22,32 28,39 0,-38 -2,-75 -2,-114 0,-5 0,-8 0,-14l-1 -42c0,-10 0,-19 0,-29 0,-10 -1,-18 -1,-28 0,-10 0,-19 0,-29 0,-10 0,-18 0,-28 0,-6 -1,-6 -5,-10l-38 -33c-7,-6 -46,-33 -53,-33l0 -74z"/>
   <path class="fil3" d="M6505 4961l0 363 57 0 0 -209c2,2 4,10 5,12 2,5 4,9 5,13l20 53c1,4 3,9 5,13 0,2 1,4 2,6l27 72c0,3 1,5 2,7 2,4 12,31 12,33l50 0 0 -365 -57 0 0 223c-1,-2 -2,-5 -2,-7 -1,-2 -2,-4 -3,-6l-74 -210 -44 0c-3,0 -5,-1 -5,2z"/>
   <path class="fil3" d="M5650 5264l-30 0 0 -244 29 0c13,0 23,12 23,25l0 194c0,13 -10,25 -22,25zm-92 61l92 0c23,0 38,-3 56,-15 1,-1 2,-1 3,-2 8,-7 15,-17 19,-27 4,-9 7,-21 7,-34l0 -210c0,-13 -3,-25 -6,-34 -7,-15 -20,-29 -35,-36 -2,0 -2,-1 -4,-1 -1,-1 -2,-1 -4,-2 -9,-3 -23,-5 -36,-5l-92 0 0 366z"/>
   <path class="fil3" d="M6283 5049l0 192c0,53 34,88 90,88 43,0 72,-16 86,-52 4,-10 7,-24 7,-38l0 -112 -93 0 0 60 31 0 0 54c0,30 -58,35 -58,-3l0 -186c0,-37 35,-39 47,-24 8,10 5,32 5,47l65 0c0,-32 2,-63 -19,-90 -1,-1 -1,-2 -2,-3 -25,-31 -92,-37 -129,-7 -1,1 -2,2 -3,3 -1,0 -1,0 -2,1l-6 7c-14,18 -19,39 -19,63z"/>
   <path class="fil3" d="M5964 5054c0,10 1,23 2,32 2,11 4,15 9,25 4,7 11,18 18,23 0,0 0,0 0,0 0,0 0,1 1,1 1,1 2,2 4,4 28,20 39,21 65,37 3,2 7,4 10,7 6,6 11,12 11,23 0,12 2,36 -2,46 -3,6 -9,12 -15,14 -2,0 -10,2 -13,1 -31,-3 -27,-25 -27,-49l-63 1c0,21 -1,39 7,58 2,6 4,10 7,15 4,7 10,13 16,18 19,14 39,19 64,19 41,0 78,-22 86,-63 1,-6 2,-12 2,-19l0 -48c0,-9 -2,-19 -5,-26 -6,-18 -19,-33 -36,-43 -1,-1 -3,-2 -4,-3l-15 -8c-3,-1 -3,-2 -5,-3 -15,-7 -33,-15 -45,-26 -12,-12 -9,-28 -9,-48 0,-14 11,-25 25,-25 10,0 17,0 24,8 7,9 6,23 6,37 0,4 -1,5 3,5 3,1 6,0 8,0 5,-1 28,0 34,0 7,0 11,-1 18,-1 0,-27 1,-52 -15,-76 -2,-4 -6,-8 -9,-12l-13 -9c-30,-18 -79,-19 -109,1 -29,20 -35,50 -35,84z"/>
   <path class="fil3" d="M5774 4961l0 362c0,2 1,2 2,2l161 0 0 -61 -100 0 0 -90 86 0c2,0 2,-1 2,-2l0 -59 -88 0 0 -93 100 0 0 -61 -161 0c-1,0 -2,1 -2,2z"/>
   <path class="fil3" d="M6181 4961l0 362c0,2 0,2 2,2l61 0 0 -366 -61 0c-2,0 -2,1 -2,2z"/>
  </g>
  <g>
   <path class="fil3" d="M5640 7232c127,0 244,2 353,5 803,21 1141,74 1510,-500 345,-538 280,298 901,458 268,70 981,37 1327,37l-4091 0zm1133 -693l-1850 0c-209,0 -346,-263 -346,-486l0 -1179c0,-296 161,-508 462,-508l5293 0c301,0 463,217 463,508l0 1179c0,223 -138,486 -347,486l-1849 0c-208,0 -146,-648 -994,-648 -523,0 -681,648 -832,648zm3255 693l397 0c565,-12 1040,-551 1040,-1133l0 -1294c0,-818 -771,-1069 -787,-1085 -49,-49 -53,-185 -65,-259 -17,-107 -47,-173 -50,-274 -75,0 -706,-76 -739,-93 3,154 138,370 138,601l-4553 0c0,-258 122,-407 138,-601 -99,48 -510,38 -658,82 -114,33 -98,136 -123,246 -20,84 -49,231 -51,320 -379,31 -809,562 -809,1063l0 1318c0,288 159,609 306,757 198,199 426,345 734,352l5082 0z"/>
   <path id="1" class="fil0 str0" d="M5640 7232c127,0 244,2 353,5 803,21 1141,74 1510,-500 345,-538 280,298 901,458 268,70 981,37 1327,37m-2958 -693l-1850 0c-209,0 -346,-263 -346,-486l0 -1179c0,-296 161,-508 462,-508l5293 0c301,0 463,217 463,508l0 1179c0,223 -138,486 -347,486l-1849 0c-208,0 -146,-648 -994,-648 -523,0 -681,648 -832,648zm3255 693l397 0c565,-12 1040,-551 1040,-1133l0 -1294c0,-818 -771,-1069 -787,-1085 -49,-49 -53,-185 -65,-259 -17,-107 -47,-173 -50,-274 -75,0 -706,-76 -739,-93 3,154 138,370 138,601l-4553 0c0,-258 122,-407 138,-601 -99,48 -510,38 -658,82 -114,33 -98,136 -123,246 -20,84 -49,231 -51,320 -379,31 -809,562 -809,1063l0 1318c0,288 159,609 306,757 198,199 426,345 734,352"/>
  </g>
 </g>
</svg>
