<?xml version="1.0" encoding="UTF-8"?>
<!DOCTYPE svg PUBLIC "-//W3C//DTD SVG 1.1//EN" "http://www.w3.org/Graphics/SVG/1.1/DTD/svg11.dtd">
<!-- Creator: CorelDRAW X8 -->
<svg xmlns="http://www.w3.org/2000/svg" xml:space="preserve" width="10cm" height="10cm" version="1.1" style="shape-rendering:geometricPrecision; text-rendering:geometricPrecision; image-rendering:optimizeQuality; fill-rule:evenodd; clip-rule:evenodd"
viewBox="0 0 10000 10000"
 xmlns:xlink="http://www.w3.org/1999/xlink">
 <defs>
  <style type="text/css">
   <![CDATA[
    .str0 {stroke:#FEFEFE;stroke-width:7.62}
    .fil2 {fill:none}
    .fil0 {fill:#A8FF21}
    .fil1 {fill:#FEFEFE}
   ]]>
  </style>
 </defs>
 <g id="Layer_x0020_1">
  <metadata id="CorelCorpID_0Corel-Layer"/>
  <path class="fil0" d="M4605 5150l0 -61c36,1 145,53 266,53 142,0 267,1 395,-60 0,103 3,166 32,242 68,179 213,302 395,357 31,10 37,3 52,24l-334 23c-126,11 -650,27 -778,10 -43,-6 -269,-9 -352,-21 -59,-8 -118,-7 -170,-19 1,-1 4,-5 4,-3 1,1 4,-2 5,-3 2,-1 9,-4 11,-5l74 -25c216,-76 400,-283 400,-512zm357 -228c-226,0 -364,-63 -488,-203 -94,-105 -179,-295 -211,-436 350,0 475,52 612,-163 114,-177 93,98 297,151 88,23 323,12 437,12 -50,104 -40,213 -209,431 -94,120 -273,208 -438,208zm-327 -867l-608 0c-69,0 -114,-86 -114,-160l0 -387c0,-98 53,-168 152,-168l1741 0c99,0 152,72 152,168l0 387c0,74 -45,160 -114,160l-608 0c-68,0 -48,-213 -327,-213 -172,0 -224,213 -274,213zm-677 -920c-124,10 -266,185 -266,350l0 433c0,95 53,201 101,249 65,66 140,114 241,116 48,206 138,421 269,576 29,35 47,32 60,84 36,137 36,281 -59,393 -101,119 -272,148 -418,190 -79,22 -152,50 -227,78 -61,22 -48,17 -117,1 -126,-30 -237,-55 -360,-96 -84,-28 -390,-137 -425,-184l218 -117c39,-19 73,-38 109,-58 38,-22 68,-46 68,-106 0,-114 29,-327 -76,-327 -122,0 -91,129 -91,296l-231 126c-20,12 -63,37 -81,42l0 -1978c114,-75 289,-150 433,-198 18,-6 39,-15 56,-20 174,-55 257,-73 439,-116 289,-69 851,-122 1141,-122 550,0 915,0 1464,110 218,43 499,114 697,200l211 93c-24,33 -334,170 -372,213 -40,45 -23,240 -23,335 0,89 114,107 152,53 25,-35 15,-221 15,-281l312 -168 0 1879c-105,-56 -207,-112 -312,-168 0,-54 9,-795 -7,-829 -37,-74 -160,-56 -160,54l0 806c0,83 82,117 172,162l108 60c20,12 96,55 115,59 -24,33 -151,79 -197,99 -69,30 -150,58 -222,83 -74,24 -151,46 -230,66 -46,11 -76,18 -123,29 -47,10 -78,27 -122,9 -192,-76 -304,-91 -458,-142 -248,-83 -315,-269 -257,-506 16,-67 12,-51 52,-92 72,-74 125,-173 168,-266 47,-102 86,-210 112,-322 186,-4 342,-181 342,-372l0 -426c0,-269 -254,-352 -259,-357 -16,-16 -17,-61 -21,-85 -6,-36 -16,-57 -17,-90 -25,0 -232,-26 -243,-31 1,51 46,122 46,198l-1498 0c0,-85 40,-134 45,-198 -33,16 -168,13 -216,27 -38,11 -32,45 -41,81 -6,27 -16,76 -17,105zm533 -547c22,-33 131,-93 179,-110 162,-56 358,-58 519,-4 51,17 165,77 191,114 -75,0 -137,-8 -220,-8 -84,0 -139,-8 -221,-8l-335 8c-44,0 -62,8 -113,8zm-1985 562l0 2198c0,15 22,41 33,50 217,172 703,306 960,371 257,65 661,113 931,126 34,2 36,8 76,8 29,1 61,-2 90,1 209,23 929,-2 1169,-35 230,-31 379,-48 607,-100 177,-40 615,-168 786,-270 43,-26 207,-103 207,-151l0 -2198c0,-33 -18,-47 -38,-61 -211,-146 -552,-271 -800,-333 -365,-90 -434,-91 -788,-139 -35,-4 -42,-23 -60,-46 -36,-45 -63,-71 -103,-111 -121,-122 -342,-245 -583,-245 -192,0 -276,-2 -449,76 -132,58 -257,161 -345,271 -55,70 -39,51 -142,63 -356,41 -609,96 -944,197 -30,9 -47,18 -77,29 -94,32 -530,197 -530,299z"/>
  <path class="fil0" d="M6377 5918c7,7 -2,0 13,10l48 28c164,94 292,172 411,333 199,268 29,602 258,602 51,0 97,-56 98,-106l-24 -189c-17,-144 -31,-218 -87,-331 -67,-135 -178,-247 -293,-338 -149,-119 -106,-88 -272,-47 -51,13 -102,26 -152,38z"/>
  <path class="fil0" d="M2689 6800c0,90 193,157 222,-14 9,-56 15,-120 22,-182 38,-310 178,-439 423,-604 35,-23 117,-62 131,-82 -5,-2 -288,-76 -289,-76 -30,0 -209,155 -250,206 -101,127 -183,208 -221,418l-38 334z"/>
  <path class="fil0" d="M2772 3287c0,83 51,89 147,142 25,14 36,26 66,33l0 912c0,136 -26,236 91,236 42,0 76,-44 76,-83l0 -1095c0,-85 -70,-100 -126,-133 -107,-64 -161,-114 -225,-67 -17,12 -29,29 -29,55z"/>
  <path class="fil0" d="M6719 3933c0,64 -4,145 91,145 92,0 76,-115 76,-167 0,-94 -167,-117 -167,22z"/>
  <g>
   <path class="fil1" d="M4263 4283c41,0 80,1 116,2 264,7 375,24 496,-165 114,-177 93,98 297,151 88,23 323,12 437,12l-1346 0zm372 -228l-608 0c-69,0 -114,-86 -114,-160l0 -387c0,-98 53,-168 152,-168l1741 0c99,0 152,72 152,168l0 387c0,74 -45,160 -114,160l-608 0c-68,0 -48,-213 -327,-213 -172,0 -224,213 -274,213zm1071 228l131 0c186,-4 342,-181 342,-372l0 -426c0,-269 -254,-352 -259,-357 -16,-16 -17,-61 -21,-85 -6,-36 -16,-57 -17,-90 -25,0 -232,-26 -243,-31 1,51 46,122 46,198l-1498 0c0,-85 40,-134 45,-198 -33,16 -168,13 -216,27 -38,11 -32,45 -41,81 -6,27 -16,76 -17,105 -124,10 -266,185 -266,350l0 433c0,95 53,201 101,249 65,66 140,114 241,116l1672 0z"/>
   <path id="1" class="fil2 str0" d="M4263 4283c41,0 80,1 116,2 264,7 375,24 496,-165 114,-177 93,98 297,151 88,23 323,12 437,12m-974 -228l-608 0c-69,0 -114,-86 -114,-160l0 -387c0,-98 53,-168 152,-168l1741 0c99,0 152,72 152,168l0 387c0,74 -45,160 -114,160l-608 0c-68,0 -48,-213 -327,-213 -172,0 -224,213 -274,213zm1071 228l131 0c186,-4 342,-181 342,-372l0 -426c0,-269 -254,-352 -259,-357 -16,-16 -17,-61 -21,-85 -6,-36 -16,-57 -17,-90 -25,0 -232,-26 -243,-31 1,51 46,122 46,198l-1498 0c0,-85 40,-134 45,-198 -33,16 -168,13 -216,27 -38,11 -32,45 -41,81 -6,27 -16,76 -17,105 -124,10 -266,185 -266,350l0 433c0,95 53,201 101,249 65,66 140,114 241,116"/>
  </g>
  <g>
   <path class="fil1" d="M4042 3695l0 -180c0,0 1,1 1,1l3 3c3,2 9,9 12,12 7,9 14,21 18,31 2,4 3,8 4,12 5,19 6,43 0,62 -4,15 -12,30 -22,42l-7 9 -8 7c0,0 0,0 -1,1zm-21 38l0 0 0 -256c2,0 11,6 14,8 2,1 5,2 6,3 5,2 13,9 16,12l2 1c2,2 9,8 11,10 3,4 6,8 9,11l6 9c0,-1 -1,-1 -1,-2 0,-5 1,-12 0,-17l0 -18c0,-4 0,-7 0,-10 0,-3 0,-6 0,-9l0 -29c0,-3 -1,-5 -1,-9 0,-2 0,-2 -1,-3l-6 -6c-7,-6 -15,-11 -23,-15 0,0 -1,-1 -1,-1l0 -24c3,1 8,4 11,5 5,3 10,6 15,10 1,1 3,2 4,3 0,0 1,1 1,1 1,0 2,2 4,3 1,1 3,2 4,3l3 3c1,0 1,1 1,1 2,2 3,3 4,4l4 4c1,1 2,2 2,3 1,0 1,1 2,2 3,4 7,9 10,14l4 8c4,8 8,18 10,26 2,4 2,9 3,13 1,3 0,65 0,72 2,1 4,4 6,5l10 10c1,1 4,4 5,5 3,-3 8,-8 11,-11l0 0c0,0 0,0 0,0l0 -1c2,-1 4,-3 6,-4 -2,-7 -4,-13 -7,-19 -1,-1 -2,-2 -2,-4 -2,-4 -5,-7 -7,-11l25 0c0,0 0,0 1,1 0,1 0,1 0,1 2,3 4,8 5,11 4,8 6,16 8,25 0,2 0,2 -1,3 0,0 -1,1 -1,1 -5,5 -15,16 -19,19 -1,1 -3,3 -4,4 1,2 20,20 23,23 1,1 2,2 2,4 -1,7 -4,14 -6,21 -1,3 -2,6 -4,9 -1,2 -3,6 -4,8 -6,0 -12,0 -18,0 -8,0 -7,1 -6,-2 1,-1 1,-2 2,-3 3,-4 5,-9 8,-15 2,-4 3,-9 5,-13 -2,-1 -4,-3 -5,-4 -2,-2 -11,-12 -12,-13 -2,2 -14,14 -16,16 -1,0 -5,4 -5,5 -1,2 0,77 0,80 -2,1 -6,4 -8,5 -4,2 -7,4 -12,5 -2,1 -2,2 -2,-1 0,-32 0,-63 0,-94 0,-2 0,-3 1,-5 3,-2 26,-24 27,-26 -1,-1 -2,-2 -3,-3l-1 0c0,0 0,-1 0,-1 -1,0 -1,-1 -2,-1 -5,-5 -12,-12 -17,-18 0,0 0,0 -1,0 -3,-4 -4,-3 -4,-6l0 -26c0,-3 0,-6 0,-10 0,-6 1,-39 0,-41 0,-3 -4,-17 -5,-20 -1,-1 -1,-3 -2,-4 0,29 0,59 0,88 0,7 0,31 0,38 0,1 0,2 0,3 1,4 1,9 1,13 0,7 -2,18 -3,24 -1,2 -1,3 -1,5 -3,11 -5,15 -9,24 0,2 -1,3 -2,4 -1,4 -6,12 -9,16 -2,3 -7,10 -10,13l-3 3c-2,2 -3,4 -5,6 -2,1 -2,2 -3,3 -4,3 -15,11 -19,14 -1,0 -1,0 -2,1 -5,3 -10,6 -16,8 -1,1 -2,2 -3,2z"/>
   <path class="fil1" d="M4547 3655c0,1 0,1 1,1l18 0 0 -69c1,0 7,19 8,21 4,11 9,24 13,35l5 13 16 0 0 -120 -18 0c-1,0 -1,1 -1,3l0 69c0,0 0,0 0,0l-1 -2c0,-1 0,-1 0,-2 -1,-2 -1,-3 -2,-5l-4 -11c0,-1 -1,-1 -1,-2 0,-2 -1,-3 -2,-5l-12 -37c-1,-1 -1,-3 -2,-4 0,-1 -1,-2 -1,-3 0,-1 0,-1 -1,-1l-16 0 0 119z"/>
   <path class="fil1" d="M4265 3636l-9 0 0 -81c4,0 9,0 12,1 4,1 5,4 5,9l0 62c0,5 -3,9 -8,9zm-29 20l32 0c9,0 18,-4 22,-11 3,-5 4,-10 4,-16l0 -66c0,-7 -1,-14 -5,-19l-4 -3c-5,-4 -12,-5 -19,-5l-30 0 0 120z"/>
   <path class="fil1" d="M4474 3568l0 58c0,9 1,14 6,21 0,0 0,0 1,1 0,0 0,0 1,1 2,2 6,5 9,6 6,2 14,2 20,2 5,-1 10,-3 13,-6 2,-1 5,-4 6,-6 3,-5 4,-11 4,-18l0 -36 -30 0 0 20 10 0 0 16c0,5 -4,9 -9,9 -2,0 -5,0 -7,-2 -1,-1 -3,-3 -3,-5l0 -65c0,-4 4,-9 8,-9 3,0 5,0 7,3 3,3 2,11 2,16l21 0c0,-10 1,-20 -4,-28 -5,-7 -14,-12 -23,-12 -8,0 -15,1 -21,6 -2,1 -3,2 -4,4 -3,3 -4,6 -5,10 -2,4 -2,9 -2,14z"/>
   <path class="fil1" d="M4369 3561c0,11 0,18 5,27 3,4 5,5 8,8 7,5 19,10 23,13 2,2 4,4 4,7l0 13c0,6 -7,9 -13,7 -7,-2 -6,-9 -6,-15l-20 0c-1,0 -1,2 -1,5 0,13 4,21 12,26 3,2 8,4 11,5 7,0 13,0 20,-2 4,-1 6,-3 9,-5 1,-1 1,-1 2,-2 0,-1 1,-1 1,-2 7,-9 5,-20 5,-31 0,-10 -5,-18 -14,-23 -3,-3 -6,-4 -10,-6 -4,-2 -10,-5 -13,-8 -3,-4 -2,-7 -2,-13 0,-7 2,-11 10,-11 9,0 8,11 8,17l21 0c0,-9 0,-17 -5,-25 -5,-8 -13,-12 -23,-12 -6,0 -10,0 -15,3 -11,4 -17,14 -17,24z"/>
   <path class="fil1" d="M4307 3536l0 120 53 0 0 -20c0,0 0,0 0,0l-32 0 0 -30 28 0 0 -20 -28 0 0 -30 32 0 0 -20 -52 0c-1,0 -1,0 -1,0z"/>
   <polygon class="fil1" points="4441,3656 4461,3656 4461,3536 4441,3536 "/>
  </g>
 </g>
</svg>
