<?xml version="1.0" encoding="UTF-8"?>
<!DOCTYPE svg PUBLIC "-//W3C//DTD SVG 1.1//EN" "http://www.w3.org/Graphics/SVG/1.1/DTD/svg11.dtd">
<!-- Creator: CorelDRAW -->
<svg xmlns="http://www.w3.org/2000/svg" xml:space="preserve" width="100mm" height="100mm" version="1.1" style="shape-rendering:geometricPrecision; text-rendering:geometricPrecision; image-rendering:optimizeQuality; fill-rule:evenodd; clip-rule:evenodd"
viewBox="0 0 10000 10000"
 xmlns:xlink="http://www.w3.org/1999/xlink"
 xmlns:xodm="http://www.corel.com/coreldraw/odm/2003">
 <defs>
  <style type="text/css">
   <![CDATA[
    .fil0 {fill:#0070C4}
    .fil1 {fill:#FF5D00}
   ]]>
  </style>
 </defs>
 <g id="Layer_x0020_1">
  <metadata id="CorelCorpID_0Corel-Layer"/>
  <path class="fil0" d="M2844.53 3558.99c-398.51,0 -714.45,-345.5 -714.45,-653.91l0 -108.99c0,-340.6 325.41,-666.01 666.01,-666.01 165,0 212.42,-2.68 371.41,76.64 666.09,332.32 418.18,1352.27 -322.97,1352.27zm-944.53 -1356.25l0 1816.4c54.76,-1.22 48.12,-12.11 108.98,-12.11 592.15,0 961.06,11.48 1494.03,189.18l346.6 137.77c9.2,-34.44 47.24,-92 67.5,-126.25l282.97 -492.02c69,-114.58 132.23,-253.6 339.76,-253.6 189.36,0 579.13,323.91 726.57,363.28 -63.81,-120.58 -130.02,-226.69 -197.49,-347.44 -35.08,-62.77 -63.08,-106.14 -97.44,-168.96 -71.64,-130.97 -107.51,-266.38 -8.27,-404.37 73.6,-102.33 589.45,-372.84 707.92,-442.48 155.27,-91.28 313.25,-198.73 491.17,-89.67 117.94,72.29 201.79,263.3 279.32,398.8l305.89 529.66c16.93,23.67 3.42,17.43 32.57,27.98 0,-234.11 0.54,-468.27 -0.02,-702.36 -0.32,-136.82 7.72,-203.19 75.32,-275.86 57.92,-62.26 123.64,-111.63 239.54,-111.63l920.32 0c41.74,0 46.88,8.96 84.76,12.11 0,-213.22 -150.72,-351.17 -302.74,-351.17l-5594.52 0c-146.74,0 -302.74,156 -302.74,302.74z"/>
  <path class="fil0" d="M1900 6332.03l1780.08 0 0 -702.34c0,-96.09 63.47,-173.33 117.85,-221.21 71.47,-62.96 150.29,-69.74 281.74,-69.43 230.06,0.53 460.19,0.01 690.25,0.01 -39.46,-53.85 -697.95,-404.4 -850.3,-505.95 -94.54,-63.02 -154.77,-152.22 -154.77,-305.38 -36.67,-8.54 -106.52,-43.92 -144.96,-60.9 -50.39,-22.27 -90.52,-35.73 -150.24,-55.62 -612.59,-204.08 -930.25,-186.21 -1569.65,-186.21l0 2107.03z"/>
  <path class="fil1" d="M5121.1 3086.72c0,77.23 37.96,122.59 91.58,211.15l727.7 1258.24c220.66,405.06 495.09,844.94 722.34,1251.48l77.83 140.15c36.08,50.51 -2.6,17.87 39.53,33.12 0,-701.79 -5.61,-1405.85 0.32,-2107.35 1.16,-137.48 -91.24,-250.84 -158.44,-362.27l-287.52 -499.58c-34.41,-57.38 -66.77,-112.38 -98.66,-167.76 -216.43,-375.91 -162.69,-355.69 -468.74,-188.96 -81.39,44.33 -147.14,88.02 -230.08,133.2l-338.41 194.39c-42.39,24.57 -77.45,43.26 -77.45,104.19z"/>
  <path class="fil0" d="M1900 6913.28c0,141.1 145.22,302.74 326.96,302.74l5546.08 0c185.52,0 326.96,-144.79 326.96,-351.17 -54.76,1.21 -48.12,12.1 -108.98,12.1l-4008.21 0c-147.89,0 -302.73,-129.64 -302.73,-326.95l-1780.08 0 0 363.28z"/>
  <path class="fil1" d="M3885.94 5702.34l0 811.33c0,177.34 129.49,145.45 230.07,145.32l2676.18 0c-4.82,-57.84 -12.11,-93.06 -12.11,-169.54 -202.1,-135.32 -773.2,-443.13 -1026.97,-595.68l-514.74 -296.6c-34.43,-20.81 -71.13,-52.25 -117.27,-52.25l-1077.74 0c-103.35,0 -157.42,54.08 -157.42,157.42z"/>
  <path class="fil1" d="M3982.81 4551.95c0,96.1 54.34,101.63 123.42,142.99l1489.46 859.76c111.84,67.24 215.86,123.54 329.78,190.93l499.28 287.82c46.82,25.56 127.85,82.04 173.69,92.72l-205.26 -351.77c-262.29,-458.42 -552.5,-979.84 -823.34,-1429 -17.96,-29.78 -32.92,-54.02 -48.83,-84.38 -21.21,-40.5 -30.18,-50.55 -70.29,-75.02 -137.93,-84.14 -848.86,-505.92 -922.99,-505.92 -84.54,0 -109.48,91.89 -165.71,185.46 -51.83,86.27 -379.21,636.84 -379.21,686.41z"/>
  <path class="fil0" d="M7216.02 6114.06c0,-174.28 125.15,-314.53 307.37,-334.61 172.56,-19.03 346.53,135.65 346.53,298.28 0,109.01 -16.85,193.96 -104.09,271.31 -227.52,201.75 -549.81,17.94 -549.81,-234.98zm-230.08 399.61c0,76.1 32.18,145.32 108.98,145.32l920.32 0c33.72,0 84.76,-51.04 84.76,-84.77l0 -1465.24 -448.05 0c0,176.17 35.6,326.96 -108.98,326.96 -137.49,0 -108.99,-200.7 -108.99,-326.96l-448.04 0 0 1404.69z"/>
  <path class="fil1" d="M2820.31 3341.01c649.08,0 708.72,-903.55 74.7,-995.57 -153.84,-22.33 -298.75,35.14 -406.59,142.98 -181.96,181.96 -197.76,447.57 -42.03,657.38 30.19,40.66 56.35,66.59 96.85,96.9 63.42,47.44 170.23,98.31 277.07,98.31z"/>
  <path class="fil0" d="M3341.01 7978.9l0 121.1 3317.98 0c0,-138.5 26.36,-230.08 -169.54,-230.08l-2978.9 0c-87.35,0 -169.54,21.66 -169.54,108.98z"/>
  <path class="fil0" d="M6985.94 2602.34c0,174.53 -26.86,302.74 36.33,302.74l411.71 0c0,-81.79 -14.31,-265.63 40.93,-310.41 40.14,-32.55 98.83,-33.04 138.04,-2.09 93.62,73.94 -15.16,312.5 75.33,312.5l411.72 0 0 -363.28c0,-66.78 -95.71,-96.88 -169.53,-96.88l-787.11 0c-103.35,0 -157.42,54.08 -157.42,157.42z"/>
  <polygon class="fil0" points="4225,7664.06 5775,7664.06 5775,7433.98 4225,7433.98 "/>
  <polygon class="fil0" points="7651.95,3558.99 8100,3558.99 8100,3110.94 7651.95,3110.94 "/>
  <polygon class="fil0" points="6985.94,4225 7433.98,4225 7433.98,3776.95 6985.94,3776.95 "/>
  <polygon class="fil0" points="7651.95,4225 8100,4225 8100,3776.95 7651.95,3776.95 "/>
  <polygon class="fil0" points="6985.94,4891.02 7433.98,4891.02 7433.98,4442.97 6985.94,4442.97 "/>
  <polygon class="fil0" points="7651.95,4891.02 8100,4891.02 8100,4442.97 7651.95,4442.97 "/>
  <path class="fil0" d="M6985.94 3147.27l0 411.72 448.04 0 0 -448.05 -411.71 0c-27.91,0 -36.33,8.42 -36.33,36.33z"/>
  <path class="fil0" d="M7433.98 6101.95c0,155.19 205.79,153.1 225.86,20.08 23.31,-154.58 -225.86,-173.11 -225.86,-20.08z"/>
 </g>
</svg>
