<?xml version="1.0" encoding="UTF-8"?>
<!DOCTYPE svg PUBLIC "-//W3C//DTD SVG 1.1//EN" "http://www.w3.org/Graphics/SVG/1.1/DTD/svg11.dtd">
<!-- Creator: CorelDRAW -->
<svg xmlns="http://www.w3.org/2000/svg" xml:space="preserve" width="100mm" height="100mm" version="1.1" style="shape-rendering:geometricPrecision; text-rendering:geometricPrecision; image-rendering:optimizeQuality; fill-rule:evenodd; clip-rule:evenodd"
viewBox="0 0 10000 10000"
 xmlns:xlink="http://www.w3.org/1999/xlink"
 xmlns:xodm="http://www.corel.com/coreldraw/odm/2003">
 <defs>
  <style type="text/css">
   <![CDATA[
    .str0 {stroke:#FF5D00;stroke-width:7.62;stroke-miterlimit:22.9256}
    .fil2 {fill:none}
    .fil0 {fill:#0070C4}
    .fil1 {fill:#FF5D00}
   ]]>
  </style>
 </defs>
 <g id="Layer_x0020_1">
  <metadata id="CorelCorpID_0Corel-Layer"/>
  <path class="fil0" d="M4604.8 5150.09l0 -60.84c36.18,0.81 145.16,53.24 266.14,53.24 142.02,0 267.34,0.61 395.4,-60.84 0,103.16 2.84,166.49 31.46,242.29 67.77,179.46 213.17,302.44 395.32,357.48 30.71,9.28 36.8,2.63 52.28,23.76l-334.17 23.23c-126.72,10.13 -649.89,26.83 -778.1,9.27 -43.48,-5.96 -269.25,-8.46 -352.1,-20.5 -59.35,-8.62 -118.15,-7.42 -170.5,-19.6 1.52,-1.07 4.01,-4.3 4.79,-2.82 0.77,1.49 3.77,-2.23 4.88,-2.72 1.5,-0.67 8.39,-3.85 10.55,-4.66l73.95 -24.9c216.34,-76.81 400.1,-283.77 400.1,-512.39zm357.38 -228.12c-226.48,0 -363.97,-63.34 -488.51,-203.45 -93.27,-104.94 -178.37,-294.99 -211.06,-435.3 350.23,0 475.16,51.38 612.78,-162.82 113.77,-177.07 92.36,97.85 296.58,150.75 88.12,22.8 322.63,12.07 436.56,12.07 -49.83,103.84 -39.7,213.12 -208.41,430.34 -93.86,120.84 -273.18,208.41 -437.94,208.41zm-326.97 -866.87l-608.32 0c-68.72,0 -114.06,-86.55 -114.06,-159.67l0 -387.82c0,-97.56 53.27,-167.29 152.08,-167.29l1741.32 0c99.08,0 152.08,71.35 152.08,167.29l0 387.82c0,73.12 -45.34,159.67 -114.06,159.67l-608.32 0c-68.34,0 -47.82,-212.9 -326.97,-212.9 -172,0 -223.9,212.9 -273.75,212.9zm-676.76 -920.08c-124.74,10.39 -266.14,185.03 -266.14,349.79l0 433.42c0,94.78 52.4,200.64 100.6,249.2 65.06,65.54 140.03,113.54 241.58,115.79 47.92,205.69 137.52,420.33 268.38,575.67 29.46,34.97 46.96,32.03 60.5,83.98 35.67,136.77 35.4,281.56 -59.3,393.14 -101.06,119.07 -272.17,148.1 -418.45,189.88 -78.49,22.41 -151.99,49.94 -226.57,77.7 -61.05,22.71 -48.5,17.49 -117.3,1.24 -125.57,-29.67 -236.82,-55.04 -359.93,-96.33 -83.47,-28 -390.09,-136.14 -424.8,-183.53l217.88 -116.68c39.16,-19.72 72.67,-37.91 108.88,-58.42 37.96,-21.49 68.65,-46.28 68.65,-106.25 0,-113.86 28.88,-326.96 -76.04,-326.96 -121.99,0 -91.25,129.5 -91.25,296.56l-231.33 126.05c-19.43,11.6 -62.33,36.39 -80.43,41.24l0 -1977.06c113.42,-75.95 289.07,-150.54 432.53,-198.59 18.12,-6.07 39.04,-14.89 55.86,-20.18 174.66,-54.9 257.26,-72.49 439.29,-115.8 288.77,-68.71 850.66,-121.67 1140.61,-121.67 550.45,0 915,-0.28 1464.41,109.63 217.76,43.57 498.88,114.25 697.26,200.01l210.78 93.37c-23.66,32.3 -334.06,170 -372.39,213.14 -39.67,44.64 -23.02,239.58 -23.02,334.35 0,89.37 114.04,107.78 152.43,53.59 24.82,-35.02 14.86,-220.88 14.86,-281.71l311.76 -167.29 0 1878.21c-105.15,-55.65 -206.6,-111.66 -311.76,-167.29 0,-54.52 9.28,-795.6 -7.31,-829.13 -36.83,-74.4 -159.98,-56.43 -159.98,53.52l0 806.01c0,83.1 82.58,117.7 172.42,162.17l107.46 59.82c20.08,12.23 96.77,55 115.53,59.36 -23.98,32.74 -151.29,78.66 -197.48,99.08 -68.2,30.16 -149.26,58.12 -221.68,82.49 -73.49,24.7 -151.04,46.7 -230.18,66.38 -45.74,11.37 -75.42,18.55 -123.03,29.03 -47.04,10.37 -77.54,26.78 -121.8,9.23 -191.61,-75.92 -304.33,-91.14 -458.41,-142.66 -247.72,-82.83 -314.86,-268.1 -256.58,-505.65 16.4,-66.83 11.85,-50.71 52.37,-92.11 71.94,-73.48 125,-173.2 167.83,-265.59 47.14,-101.71 85.36,-209.81 111.49,-321.95 186.08,-4.13 342.18,-181.18 342.18,-372.59l0 -425.82c0,-269.19 -253.57,-351.6 -258.96,-356.97 -16.18,-16.09 -17.31,-60.81 -21.25,-85.21 -5.69,-35.25 -15.61,-56.84 -16.35,-90.1 -24.9,0 -232.26,-25.11 -243.33,-30.42 1.13,50.48 45.63,121.73 45.63,197.71l-1498 0c0,-85.09 40.33,-134.04 45.63,-197.71 -32.75,15.71 -168,12.49 -216.62,26.71 -37.59,10.98 -32.08,44.97 -40.5,81.16 -6.39,27.45 -15.98,76 -16.63,105.04zm532.28 -547.48c22.1,-32.99 131.45,-92.8 179.5,-109.47 162.08,-56.26 357.53,-57.8 519.23,-3.76 50.54,16.88 164.33,76.89 190.95,113.23 -75.09,0 -137.37,-7.62 -220.52,-7.62 -84.21,0.01 -139.16,-7.65 -220.52,-7.6l-334.88 7.3c-44.35,0.55 -62.69,7.92 -113.76,7.92zm-1984.64 562.68l0 2197.57c0,15.56 21.68,41.17 33.3,50.35 216.97,171.4 702.22,305.46 959.8,370.9 257.03,65.28 661.12,112.77 930.73,126.22 33.78,1.69 36.43,7.46 75.72,7.93 29.35,0.34 61.54,-2.44 90.44,0.81 208.92,23.45 929.32,-2.08 1168.92,-34.75 230.39,-31.39 379.27,-48.61 606.95,-100.21 177.11,-40.15 615.49,-167.9 786.44,-270.52 42.45,-25.48 206.66,-102.81 206.66,-150.73l0 -2197.57c0,-33.56 -17.77,-47.2 -37.75,-61.09 -210.98,-146.63 -552.22,-271.43 -800.19,-332.8 -365.29,-90.42 -434.18,-91.33 -788.61,-139.08 -34.46,-4.64 -41.35,-23.52 -59.83,-46.64 -35.8,-44.78 -62.7,-70.35 -102.44,-110.47 -121.39,-122.48 -341.76,-245.2 -583.63,-245.2 -191.25,0 -275.72,-1.45 -448.96,75.7 -132.06,58.83 -256.45,161.74 -344.25,271.68 -55.3,69.26 -39.22,50.63 -142.73,62.58 -355.63,41.09 -608.93,95.72 -943.27,197.34 -30.41,9.24 -46.98,18.19 -77.8,28.65 -93.28,31.71 -529.5,197.53 -529.5,299.33z"/>
  <path class="fil0" d="M6376.53 5918.1c7.89,6.85 -1.48,0.39 13.2,9.6l47.97 28.07c164.16,94.47 292.14,172.47 411.5,333.7 198.31,267.84 29.22,601.93 257.32,601.93 51.05,0 97.77,-55.98 98.86,-106.51l-24.21 -188.65c-17.62,-144.22 -31.25,-218.29 -87.29,-330.94 -67.26,-135.18 -177.5,-247.03 -292.5,-338.62 -148.95,-118.65 -105.92,-87.93 -272.76,-46.59 -50.6,12.54 -101.38,26.18 -152.09,38.01z"/>
  <path class="fil0" d="M2688.58 6800.15c0,89.4 193.77,157.05 221.97,-13.76 9.34,-56.57 15.11,-120.18 22.75,-182.54 37.99,-310.1 177.86,-438.77 422.89,-603.66 34.34,-23.1 116.57,-62.65 130.82,-82.09 -4.85,-2.34 -288.32,-76.05 -288.96,-76.05 -30.47,0 -208.7,155.08 -249.8,206.44 -101.41,126.74 -183.61,207.37 -220.77,417.98l-38.9 333.68z"/>
  <path class="fil0" d="M2772.23 3287.1c0,82.42 51.11,88.62 146.89,142.06 25.33,14.12 35.76,25.79 66.02,32.83l0 912.48c0,135.31 -26.41,235.74 91.25,235.74 42.06,0 76.04,-43.86 76.04,-83.65l0 -1094.99c0,-84.9 -70.47,-99.38 -126.06,-132.48 -107.07,-63.72 -161.27,-113.99 -225.5,-66.99 -16.5,12.06 -28.64,28.58 -28.64,55z"/>
  <path class="fil0" d="M6718.71 3933.45c0,63.31 -3.71,144.47 91.25,144.47 91.56,0 76.04,-114.74 76.04,-167.29 0,-93.86 -167.29,-116.62 -167.29,22.82z"/>
  <g>
   <path class="fil1" d="M4262.61 4283.22c41.79,0 80.38,0.73 116.16,1.66 264.07,6.82 375.42,24.16 496.62,-164.48 113.77,-177.07 92.36,97.85 296.58,150.75 88.12,22.8 322.63,12.07 436.56,12.07l-1345.92 0zm372.6 -228.12l-608.32 0c-68.72,0 -114.06,-86.55 -114.06,-159.67l0 -387.82c0,-97.56 53.27,-167.29 152.08,-167.29l1741.32 0c99.08,0 152.08,71.35 152.08,167.29l0 387.82c0,73.12 -45.34,159.67 -114.06,159.67l-608.32 0c-68.34,0 -47.82,-212.9 -326.97,-212.9 -172,0 -223.9,212.9 -273.75,212.9zm1070.91 228.12l130.53 0c186.08,-4.13 342.18,-181.18 342.18,-372.59l0 -425.82c0,-269.19 -253.57,-351.6 -258.96,-356.97 -16.18,-16.09 -17.31,-60.81 -21.25,-85.21 -5.69,-35.25 -15.61,-56.84 -16.35,-90.1 -24.9,0 -232.26,-25.11 -243.33,-30.42 1.13,50.48 45.63,121.73 45.63,197.71l-1498 0c0,-85.09 40.33,-134.04 45.63,-197.71 -32.75,15.71 -168,12.49 -216.62,26.71 -37.59,10.98 -32.08,44.97 -40.5,81.16 -6.39,27.45 -15.98,76 -16.63,105.04 -124.74,10.39 -266.14,185.03 -266.14,349.79l0 433.42c0,94.78 52.4,200.64 100.6,249.2 65.06,65.54 140.03,113.54 241.58,115.79l1671.63 0z"/>
   <path id="_1" class="fil2 str0" d="M4262.61 4283.22c41.79,0 80.38,0.73 116.16,1.66 264.07,6.82 375.42,24.16 496.62,-164.48 113.77,-177.07 92.36,97.85 296.58,150.75 88.12,22.8 322.63,12.07 436.56,12.07m-973.32 -228.12l-608.32 0c-68.72,0 -114.06,-86.55 -114.06,-159.67l0 -387.82c0,-97.56 53.27,-167.29 152.08,-167.29l1741.32 0c99.08,0 152.08,71.35 152.08,167.29l0 387.82c0,73.12 -45.34,159.67 -114.06,159.67l-608.32 0c-68.34,0 -47.82,-212.9 -326.97,-212.9 -172,0 -223.9,212.9 -273.75,212.9zm1070.91 228.12l130.53 0c186.08,-4.13 342.18,-181.18 342.18,-372.59l0 -425.82c0,-269.19 -253.57,-351.6 -258.96,-356.97 -16.18,-16.09 -17.31,-60.81 -21.25,-85.21 -5.69,-35.25 -15.61,-56.84 -16.35,-90.1 -24.9,0 -232.26,-25.11 -243.33,-30.42 1.13,50.48 45.63,121.73 45.63,197.71l-1498 0c0,-85.09 40.33,-134.04 45.63,-197.71 -32.75,15.71 -168,12.49 -216.62,26.71 -37.59,10.98 -32.08,44.97 -40.5,81.16 -6.39,27.45 -15.98,76 -16.63,105.04 -124.74,10.39 -266.14,185.03 -266.14,349.79l0 433.42c0,94.78 52.4,200.64 100.6,249.2 65.06,65.54 140.03,113.54 241.58,115.79"/>
  </g>
 </g>
</svg>
