<?xml version="1.0" encoding="UTF-8"?>
<!DOCTYPE svg PUBLIC "-//W3C//DTD SVG 1.1//EN" "http://www.w3.org/Graphics/SVG/1.1/DTD/svg11.dtd">
<!-- Creator: CorelDRAW -->
<svg xmlns="http://www.w3.org/2000/svg" xml:space="preserve" width="100mm" height="100mm" version="1.1" style="shape-rendering:geometricPrecision; text-rendering:geometricPrecision; image-rendering:optimizeQuality; fill-rule:evenodd; clip-rule:evenodd"
viewBox="0 0 10000 10000"
 xmlns:xlink="http://www.w3.org/1999/xlink"
 xmlns:xodm="http://www.corel.com/coreldraw/odm/2003">
 <defs>
  <style type="text/css">
   <![CDATA[
    .fil0 {fill:#0070C4}
    .fil1 {fill:#FF5D00}
   ]]>
  </style>
 </defs>
 <g id="Layer_x0020_1">
  <metadata id="CorelCorpID_0Corel-Layer"/>
  <path class="fil0" d="M5130.36 6953.12l0 -262.34c496,-79.98 864.77,-400.48 917.59,-919.04l265.55 0.38c-62.78,624.7 -543.28,1147.88 -1183.14,1181zm-87.7 732.05l-22.78 0c-44.92,-4.71 -86.59,-37.36 -86.59,-97.98l0 -428.65c-225.94,-5.03 -513.3,-112.79 -700.75,-230.05 -30.38,-19 -44.93,-33.3 -70.92,-51.54 -227.33,-159.55 -344.25,-323.79 -477.56,-575.72 -386.74,0 -819.42,18.43 -1200.37,0.14 -79.52,-3.82 -184.22,-32.93 -239.8,-66.38 -30.5,-18.36 -68.74,-36.15 -92.79,-54.18 -152.61,-114.39 -240.93,-280.95 -255.14,-455.31l0 -100.17c11.75,-143.53 74.18,-286.61 192.7,-405.12 181.84,-181.81 356.01,-180.46 591.12,-180.46l0 -269.44c0,-391.79 144.18,-747.68 509.07,-911.63 214.46,-96.35 483.66,-136.86 703.42,-31.41 89.62,-133.84 177.51,-256.67 304.11,-357.25 126.23,-100.28 259.13,-166.72 419.75,-217.09 215.74,-67.67 614.54,-67.67 830.28,0 92.31,28.95 212.72,75.38 289.97,126.42l233.77 182.63c20.99,21 25.31,34.84 49.96,60.28 43.46,44.81 109.83,121.19 125.67,180.52 133.92,-2.99 331.79,-108.14 649.31,48.77 148.41,73.33 259.96,160.15 352.77,296.35 32.62,47.85 49.79,80.89 75.73,132.46 116.63,231.73 85.68,498.13 85.68,759.39l232.7 0c328.25,0 624.61,290.18 624.61,600.12 0,304.67 -126.12,474.39 -363.27,604.27 -50.33,27.57 -163.79,55.64 -236.41,57.52 -390.17,10.1 -796.41,-0.43 -1188.42,-0.43 -92.62,175.02 -188.42,328.01 -333.59,462.49 -222.06,205.7 -601.66,387.82 -915.64,394.82l0 428.65c0,60.62 -41.68,93.28 -86.59,97.98zm-1293.59 -1909.46l265.52 -4.92c52.73,519.41 421.14,839.93 917.59,919.99l0 262.34c-630.93,-32.65 -1128.83,-559.67 -1183.11,-1177.41zm3559.23 -532.31c291.35,-0.01 444.97,-2.9 580.93,183.97 126.62,174.03 80.65,423.65 -47.16,549.32 -152.77,150.2 -371.3,124.22 -630.77,124.22 -244.33,0 -512.21,10.39 -753.62,-1.37l59.9 -327.05c256.28,-0.96 517.86,-0.96 779.44,-0.96 103.33,0.01 290.71,33.95 305.17,-84.62 17.78,-145.91 -168.57,-114.15 -287.4,-114.15l-6.49 -329.36zm-2376.1 -387.97c0,95.64 -1.68,186.21 99.07,186.21 100.75,0 99.07,-90.57 99.07,-186.21 384.05,50.09 711.81,389.18 714.65,716.36 -87.89,3.92 -152.72,14.87 -150.53,104.1 2.23,90.54 67.76,87.78 153.96,99.25 -54.94,297.19 -193.92,496.73 -435.81,625.99 -82.91,44.32 -180.36,75.78 -282.27,87.16 0,-89.98 1.47,-186.63 -99.07,-186.63 -100.54,0 -99.07,96.65 -99.07,186.63 -387.73,-43.29 -646.46,-325.71 -718.08,-713.15 86.2,-11.47 151.73,-8.71 153.96,-99.25 2.19,-89.23 -62.64,-100.18 -150.53,-104.1 2.84,-327.18 330.6,-666.27 714.65,-716.36zm-1381.95 916.1l53.25 328.25c-293.33,9.8 -736.8,1.17 -1046.19,1.13 -492.44,-0.06 -602.08,-560.66 -274.2,-783.9 103.12,-70.23 252.6,-81.47 400.06,-72.43l4.55 326.21c-28.11,2.01 -295.68,-25.71 -219.39,145.21 39.85,89.27 227.89,55.53 321.68,55.53 253.41,0 506.83,0 760.24,0zm1580.11 -1380.88c347.33,19.89 651.63,206.38 814.82,372.01 133.35,135.35 379.4,500.75 364.74,808.67l-255.91 1.64c-43.92,-140.01 -38.11,-215.31 -104.13,-349.53 -95.62,-194.43 -260.32,-363.16 -454.37,-463.72 -129,-66.84 -215.06,-69.95 -356.08,-107.02 -24.29,-62.62 -9.07,-182.7 -9.07,-262.05zm-1121.83 1181.77l-255.92 0.19c-14.65,-309.31 231.4,-674.48 364.75,-809.96 162.98,-165.58 467.7,-352.12 814.82,-372 0,79.35 15.22,199.43 -9.07,262.05 -262.05,68.88 -392.32,73.55 -615.75,300.03 -73.97,74.98 -133.05,148.42 -190.61,262.56 -70.28,139.34 -62.8,212.91 -108.22,357.13zm-337.89 -508.11c-21.41,82.26 -55.39,151.46 -76.55,240.9 -18.69,78.97 -28.28,196.14 -50.27,267.71l-643.58 0 -13.37 0.01 -0.48 -536.81c-3.83,-355.12 -32.28,-614.65 178.05,-836.22 200.44,-211.15 375.78,-262.45 744.77,-195.01 -44.48,217.62 -71.68,283.35 -71.45,532.72 0.12,155.45 35.53,432.74 -67.12,526.7zm3351.52 -720.03c54.69,50 77.53,179.75 84.63,251.68 9.72,98.46 3.91,219.67 3.91,321.32 0,161.93 19.08,514.84 -4.51,654.23l-587.47 1.48c-30.2,-98.4 -21.81,-183.64 -104.43,-436.87 -28.76,-81.3 -87.37,-156.58 -90.11,-242.65 -6.18,-195 12.97,-460.14 -13.65,-643.47 -14.71,-101.37 -48.11,-176.38 -63.27,-260 176.09,-36.19 348.3,-19.15 489.25,55.26 96.98,51.2 270.53,193.48 285.65,299.02zm-958.96 -263.18c74.29,152.57 73.02,396.11 61.36,577.94 -40.55,-24.04 -93.15,-81.23 -131.85,-115.43 -101.16,-89.4 -249.82,-181.45 -377.06,-235.01 -16.48,-6.93 -27.98,-10.51 -43.77,-17.76 -26.81,-12.28 -24.42,-10.79 -42.29,-23.78 -54.75,-2.13 -132.03,-34.07 -193.37,-47.57 -325.58,-71.73 -694.39,-15.24 -980.32,132.28 -258,133.11 -336.63,258.79 -417.86,307.25 -21.45,-334.87 27.39,-605.04 191.53,-826.92 129.27,-174.77 307.9,-336.3 602.52,-401.51 419.14,-92.77 900.27,17.99 1147.71,332.06 67.89,86.17 145.3,186.61 183.4,318.45z"/>
  <path class="fil1" d="M4436.79 2271.86c-34.26,-348.24 227.69,-628.37 536.53,-656.25 347.71,-31.4 623.82,229.71 652.65,537.31 32.52,346.99 -230.84,621.61 -536.34,651.73 -344.17,33.94 -623.04,-229.67 -652.84,-532.79zm526.41 -857.31l137.93 0c93.62,8.42 188.1,34 281.44,77.35 99.35,46.12 191.91,120.64 259.49,205.91 19.15,24.16 23.27,25.64 43.45,54.53 118.99,170.23 141.83,298.61 141.83,507.28 0,641.24 -910.98,1054.49 -1400,469.21 -52.24,-62.51 -69.13,-76.07 -114.71,-166.98 -72.5,-144.61 -77.43,-243.68 -77.43,-400.22 0,-109.58 40.59,-223.16 77.34,-302.31 46.13,-99.35 120.65,-191.9 205.91,-259.49 136.65,-108.31 288.09,-171.07 444.75,-185.28z"/>
  <path class="fil1" d="M3886.53 2841.26c212.05,353.93 -226.09,715.01 -527.8,478.53 -452.06,-354.34 240.04,-958.79 527.8,-478.53zm-312.68 753.32c326.25,0 569,-264.35 569,-563.38 0,-298.13 -247.35,-563.39 -556.77,-563.39 -516.72,0 -747.45,613.35 -413.7,952.59 88.56,90.02 227.97,174.18 401.47,174.18z"/>
  <path class="fil1" d="M6326.31 2682.42c455.42,-129.56 642.18,570.65 192.06,696.45 -461.65,129.02 -665.88,-561.67 -192.06,-696.45zm-474.48 348.78c0,440.33 521.38,726.96 882.06,465.64 324.88,-235.36 305.11,-661.41 75,-871.56 -39.41,-36 -111.47,-85.58 -160.73,-108.72 -364.4,-171.13 -796.33,117.58 -796.33,514.64z"/>
  <path class="fil1" d="M4008.53 5572.42c45.42,-144.22 37.94,-217.79 108.22,-357.13 57.56,-114.14 116.64,-187.58 190.61,-262.56 223.43,-226.48 353.7,-231.15 615.75,-300.03 24.29,-62.62 9.07,-182.7 9.07,-262.05 -347.12,19.88 -651.84,206.42 -814.82,372 -133.35,135.48 -379.4,500.65 -364.75,809.96l255.92 -0.19z"/>
  <path class="fil1" d="M5130.36 4390.65c0,79.35 -15.22,199.43 9.07,262.05 141.02,37.07 227.08,40.18 356.08,107.02 194.05,100.56 358.75,269.29 454.37,463.72 66.02,134.22 60.21,209.52 104.13,349.53l255.91 -1.64c14.66,-307.92 -231.39,-673.32 -364.74,-808.67 -163.19,-165.63 -467.49,-352.12 -814.82,-372.01z"/>
  <path class="fil1" d="M4014.59 5770.79l-265.52 4.92c54.28,617.74 552.18,1144.76 1183.11,1177.41l0 -262.34c-496.45,-80.06 -864.86,-400.58 -917.59,-919.99z"/>
  <path class="fil1" d="M5130.36 6953.12c639.86,-33.12 1120.36,-556.3 1183.14,-1181l-265.55 -0.38c-52.82,518.56 -421.59,839.06 -917.59,919.04l0 262.34z"/>
  <path class="fil0" d="M4995.16 5513.15c205,-54.24 282.49,268.19 79.59,317.32 -214.99,52.05 -295.63,-260.15 -79.59,-317.32zm-33.53 -194.58c-178.85,40.05 -331.66,200.56 -284.18,429.55 35.65,171.91 212.63,324.92 433.42,276.49 460.71,-101.06 306.84,-808.19 -149.24,-706.04z"/>
  <path class="fil1" d="M4995.16 5513.15c-216.04,57.17 -135.4,369.37 79.59,317.32 202.9,-49.13 125.41,-371.56 -79.59,-317.32z"/>
  <rect class="fil0" x="4920.49" y="3729.69" width="221.57" height="1309.65" rx="110.79" ry="165.68"/>
 </g>
</svg>
