<?xml version="1.0" encoding="UTF-8"?>
<!DOCTYPE svg PUBLIC "-//W3C//DTD SVG 1.1//EN" "http://www.w3.org/Graphics/SVG/1.1/DTD/svg11.dtd">
<!-- Creator: CorelDRAW X8 -->
<svg xmlns="http://www.w3.org/2000/svg" xml:space="preserve" width="5.08cm" height="5.08cm" version="1.1" style="shape-rendering:geometricPrecision; text-rendering:geometricPrecision; image-rendering:optimizeQuality; fill-rule:evenodd; clip-rule:evenodd"
viewBox="0 0 5080 5080"
 xmlns:xlink="http://www.w3.org/1999/xlink">
 <defs>
  <style type="text/css">
   <![CDATA[
    .fil0 {fill:black}
   ]]>
  </style>
 </defs>
 <g id="Layer_x0020_1">
  <metadata id="CorelCorpID_0Corel-Layer"/>
  <g id="_2068716583648">
   <path class="fil0" d="M583 3640l0 -2200c0,-451 406,-857 857,-857l2200 0c451,0 857,406 857,857l0 2200c0,451 -406,857 -857,857l-2200 0c-451,0 -857,-406 -857,-857zm-429 -2246l0 2292c0,148 65,363 128,488l182 283c109,115 83,106 241,225 165,124 476,244 689,244l2292 0c148,0 362,-65 488,-128 358,-180 591,-447 706,-840 19,-66 46,-188 46,-272l0 -2292c0,-80 -24,-198 -44,-264 -91,-316 -249,-538 -507,-732 -113,-84 -279,-158 -417,-198 -66,-19 -188,-46 -272,-46l-2292 0c-80,0 -198,24 -264,44 -140,40 -305,111 -419,196 -33,24 -59,42 -88,70l-154 154c-168,180 -315,530 -315,776z"/>
   <path class="fil0" d="M1739 2577c0,-190 36,-351 143,-499 140,-193 378,-339 621,-339 253,0 431,63 603,235 64,64 124,135 160,222 103,256 103,432 0,688 -60,146 -242,325 -382,382 -256,103 -432,103 -688,0 -113,-46 -239,-163 -310,-259 -79,-107 -147,-286 -147,-430zm-429 -102c0,151 -3,227 39,380 37,134 106,282 185,393 127,179 278,302 475,401 65,33 129,57 209,80 197,56 439,56 637,2 279,-76 519,-245 688,-477 43,-60 73,-117 106,-183 332,-662 -21,-1500 -788,-1719 -350,-99 -737,-25 -1029,182 -110,77 -215,182 -295,292 -120,167 -227,438 -227,649z"/>
   <path class="fil0" d="M3509 1254c0,100 28,163 86,222 30,30 37,41 78,61 220,106 461,-40 461,-283 0,-170 -146,-301 -309,-306 -95,-2 -179,48 -231,102l-54 76c-16,36 -31,80 -31,128z"/>
  </g>
 </g>
</svg>
