<?xml version="1.0" encoding="UTF-8"?>
<!DOCTYPE svg PUBLIC "-//W3C//DTD SVG 1.1//EN" "http://www.w3.org/Graphics/SVG/1.1/DTD/svg11.dtd">
<!-- Creator: CorelDRAW X8 -->
<svg xmlns="http://www.w3.org/2000/svg" xml:space="preserve" width="15.5cm" height="15.5cm" version="1.1" style="shape-rendering:geometricPrecision; text-rendering:geometricPrecision; image-rendering:optimizeQuality; fill-rule:evenodd; clip-rule:evenodd"
viewBox="0 0 15500 15500"
 xmlns:xlink="http://www.w3.org/1999/xlink">
 <defs>
  <style type="text/css">
   <![CDATA[
    .fil1 {fill:#A8FF21}
    .fil0 {fill:white}
   ]]>
  </style>
 </defs>
 <g id="Layer_x0020_1">
  <metadata id="CorelCorpID_0Corel-Layer"/>
  <path class="fil0" d="M12654 6694c-194,0 -351,158 -352,352l0 6581c-1,582 -473,1054 -1056,1056l-9373 0c-583,-2 -1055,-474 -1056,-1056l0 -9374c1,-582 473,-1054 1056,-1056l6581 0c194,0 352,-157 352,-352 0,-194 -158,-352 -352,-352l-6581 0c-972,0 -1760,788 -1761,1760l0 9374c1,972 789,1760 1761,1760l9373 0c972,0 1760,-788 1761,-1760l0 -6581c-1,-194 -158,-352 -353,-352l0 0zm0 0z"/>
  <path class="fil1" d="M13485 215c-66,-66 -156,-103 -250,-102 -93,0 -182,37 -250,102l-5042 5042 -14 14 -7 7c-7,11 -17,21 -24,32 0,3 -4,3 -4,7 -7,10 -11,18 -18,28 -3,4 -3,7 -7,11 -3,10 -7,17 -10,28 0,3 -4,3 -4,7l-898 2708c-43,126 -10,265 85,359 66,65 156,102 250,102 38,-1 76,-7 113,-18l2700 -901c4,0 4,0 7,-4 11,-3 22,-8 32,-14 3,0 5,-1 7,-3 10,-7 25,-14 35,-21 11,-8 21,-18 32,-25 3,-4 7,-4 7,-7 3,-4 10,-7 14,-14l5046 -5046c66,-66 103,-155 103,-248 0,-93 -37,-183 -103,-248l-1800 -1796zm-5637 7436l497 -1493 996 997 -1493 496zm2145 -841l-1303 -1303 4545 -4546 1303 1303 -4545 4546zm0 0z"/>
 </g>
</svg>
