<?xml version="1.0" encoding="UTF-8"?>
<!DOCTYPE svg PUBLIC "-//W3C//DTD SVG 1.1//EN" "http://www.w3.org/Graphics/SVG/1.1/DTD/svg11.dtd">
<!-- Creator: CorelDRAW X8 -->
<svg xmlns="http://www.w3.org/2000/svg" xml:space="preserve" width="5.08cm" height="5.08cm" version="1.1" style="shape-rendering:geometricPrecision; text-rendering:geometricPrecision; image-rendering:optimizeQuality; fill-rule:evenodd; clip-rule:evenodd"
viewBox="0 0 5080 5080"
 xmlns:xlink="http://www.w3.org/1999/xlink">
 <defs>
  <style type="text/css">
   <![CDATA[
    .fil0 {fill:black}
   ]]>
  </style>
 </defs>
 <g id="Layer_x0020_1">
  <metadata id="CorelCorpID_0Corel-Layer"/>
  <path class="fil0" d="M2697 159l-55 0 0 3292c0,149 -52,273 -127,384 -33,51 -77,92 -122,132 -8,7 -15,13 -24,20 -29,21 -59,41 -90,57 -6,3 -8,5 -15,8 -97,53 -210,76 -322,76 -188,0 -358,-78 -487,-207 -4,-4 -7,-7 -11,-10 -4,-6 -5,-8 -10,-13 -28,-29 -53,-63 -74,-98l-46 -86c-29,-62 -48,-135 -55,-204 -10,-100 -1,-210 35,-303 33,-87 67,-150 126,-222l43 -46c128,-129 301,-199 498,-199l245 0 0 -795 -232 0c-256,0 -452,51 -634,132 -25,11 -52,22 -77,36 -10,6 -20,11 -30,17l-59 34c-39,23 -76,48 -112,75 -76,58 -126,105 -196,174 -31,31 -58,66 -86,100 -45,55 -98,134 -130,195l-33 61c-6,11 -10,22 -15,32 -86,170 -141,424 -141,605 0,170 15,268 54,425 4,17 10,33 14,48 9,31 20,59 31,89 11,29 23,57 35,85l62 120c8,13 14,26 23,39 54,84 102,149 167,223 26,30 79,83 108,106 10,9 20,20 31,28 33,27 67,55 102,79 53,38 110,75 169,104 7,4 13,7 20,10 84,42 170,78 261,102 120,32 242,58 368,57 20,0 35,3 57,2 11,0 14,-2 27,-2 47,0 97,-4 143,-10 164,-21 276,-57 424,-118l178 -95c35,-21 77,-48 108,-74l116 -96c73,-64 170,-181 223,-260 8,-13 15,-23 23,-36 49,-76 90,-156 124,-240 5,-14 11,-29 17,-44 35,-88 59,-194 74,-287 6,-37 12,-73 13,-110l3 -55c4,-27 1,-1854 1,-1876 14,7 28,15 41,23l172 84c186,81 371,116 596,116l373 0 0 -796 -371 0c-210,0 -370,-30 -490,-120 -113,-85 -192,-237 -241,-371 -33,-92 -57,-202 -72,-307 -3,-25 -3,-46 -6,-71 -3,-29 0,-21 -56,-21l-686 2z"/>
 </g>
</svg>
