<?xml version="1.0" encoding="UTF-8"?>
<!DOCTYPE svg PUBLIC "-//W3C//DTD SVG 1.1//EN" "http://www.w3.org/Graphics/SVG/1.1/DTD/svg11.dtd">
<!-- Creator: CorelDRAW X8 -->
<svg xmlns="http://www.w3.org/2000/svg" xml:space="preserve" width="15.5cm" height="17cm" version="1.1" style="shape-rendering:geometricPrecision; text-rendering:geometricPrecision; image-rendering:optimizeQuality; fill-rule:evenodd; clip-rule:evenodd"
viewBox="0 0 15500 17000"
 xmlns:xlink="http://www.w3.org/1999/xlink">
 <defs>
  <style type="text/css">
   <![CDATA[
    .fil1 {fill:#A8FF21}
    .fil0 {fill:white}
   ]]>
  </style>
 </defs>
 <g id="Layer_x0020_1">
  <metadata id="CorelCorpID_0Corel-Layer"/>
  <path class="fil0" d="M8021 13855l0 -633c1198,-194 2089,-968 2216,-2220l642 0c-152,1510 -1313,2773 -2858,2853zm-212 1769l-55 0c-109,-12 -209,-90 -209,-237l0 -1035c-546,-12 -1240,-273 -1693,-556 -74,-46 -109,-80 -172,-125 -549,-385 -831,-782 -1153,-1390 -934,0 -1980,44 -2900,0 -192,-9 -445,-80 -579,-160 -74,-45 -166,-88 -224,-131 -369,-277 -582,-679 -617,-1100l0 -242c29,-347 179,-692 466,-979 439,-439 860,-436 1428,-436l0 -651c0,-946 348,-1806 1230,-2202 518,-233 1168,-330 1699,-76 216,-323 429,-620 734,-863 305,-242 626,-402 1014,-524 522,-164 1485,-164 2006,0 223,70 514,182 701,305l564 441c51,51 61,85 121,146 105,108 265,293 304,436 323,-7 801,-261 1568,118 359,177 628,387 852,716 79,115 121,195 183,320 282,560 207,1203 207,1834l562 0c793,0 1509,701 1509,1450 0,736 -304,1146 -877,1460 -122,66 -396,134 -571,139 -943,24 -1924,-1 -2871,-1 -224,422 -455,792 -806,1117 -537,497 -1454,937 -2212,954l0 1035c0,147 -101,225 -209,237zm-3125 -4613l641 -12c128,1255 1018,2029 2217,2223l0 633c-1524,-78 -2727,-1352 -2858,-2844zm8598 -1286c704,0 1075,-7 1403,445 306,420 195,1023 -114,1327 -369,362 -897,300 -1523,300 -591,0 -1238,25 -1821,-4l145 -790c619,-2 1251,-2 1883,-2 249,0 702,82 737,-204 43,-353 -407,-276 -694,-276l-16 -796zm-5740 -937c0,231 -4,450 239,450 244,0 240,-219 240,-450 927,121 1719,940 1726,1731 -212,9 -369,35 -364,251 6,219 164,212 372,240 -132,718 -468,1200 -1053,1512 -200,107 -435,183 -681,211 0,-218 3,-451 -240,-451 -243,0 -239,233 -239,451 -937,-105 -1562,-787 -1735,-1723 209,-28 367,-21 372,-240 5,-216 -151,-242 -363,-251 6,-791 798,-1610 1726,-1731zm-3338 2213l128 793c-708,24 -1780,3 -2527,3 -1190,0 -1455,-1355 -662,-1894 249,-170 610,-197 966,-175l11 788c-68,5 -714,-62 -530,351 96,216 550,134 777,134 612,0 1224,0 1837,0zm3817 -3336c839,48 1574,499 1968,899 322,327 917,1210 881,1953l-618 4c-106,-338 -92,-520 -252,-844 -231,-470 -628,-877 -1097,-1120 -312,-162 -520,-169 -860,-259 -59,-151 -22,-441 -22,-633zm-2710 2855l-619 1c-35,-748 559,-1630 882,-1957 393,-400 1129,-851 1968,-899 0,192 37,482 -22,633 -633,167 -948,178 -1487,725 -179,181 -322,359 -461,634 -170,337 -152,515 -261,863zm-817 -1227c-51,198 -133,365 -185,582 -45,190 -68,473 -121,646l-1555 0 -32 0 -1 -1296c-9,-858 -78,-1485 430,-2021 484,-510 908,-634 1799,-471 -107,526 -173,685 -172,1287 0,376 85,1046 -163,1273zm8097 -1740c132,121 187,434 204,608 24,238 10,531 10,776 0,392 46,1244 -11,1581l-1419 3c-73,-237 -53,-443 -253,-1055 -69,-196 -211,-378 -217,-586 -15,-471 31,-1112 -33,-1555 -36,-244 -117,-426 -153,-628 425,-87 841,-46 1182,134 234,124 653,467 690,722zm-2317 -636c180,369 177,957 148,1397 -98,-58 -225,-197 -318,-279 -245,-216 -604,-439 -911,-568 -40,-17 -68,-25 -106,-43 -65,-30 -59,-26 -102,-57 -132,-5 -319,-83 -467,-115 -787,-173 -1677,-37 -2368,319 -623,322 -813,626 -1010,743 -51,-809 67,-1462 463,-1998 312,-422 744,-812 1456,-970 1012,-224 2174,43 2772,802 164,208 351,451 443,769z"/>
  <path class="fil1" d="M6345 2547c-83,-841 550,-1518 1296,-1585 840,-76 1507,554 1577,1298 78,838 -558,1501 -1296,1574 -831,82 -1505,-555 -1577,-1287zm1272 -2071l333 0c226,20 454,82 680,187 240,111 464,291 627,497 46,59 56,62 105,132 287,411 342,721 342,1225 0,1549 -2200,2548 -3382,1134 -126,-151 -167,-184 -277,-404 -175,-349 -187,-588 -187,-966 0,-265 98,-539 187,-731 111,-240 292,-463 497,-627 331,-261 696,-413 1075,-447z"/>
  <path class="fil1" d="M3503 4021c16,-158 287,-427 454,-428 210,-179 807,-91 1059,329 512,855 -546,1728 -1275,1156 -375,-293 -423,-870 -238,-1057zm758 1721c788,0 1374,-638 1374,-1361 0,-720 -597,-1361 -1345,-1361 -1248,0 -1806,1482 -999,2301 214,218 550,421 970,421z"/>
  <path class="fil1" d="M10910 3539c1100,-313 1551,1378 464,1682 -1116,312 -1609,-1357 -464,-1682zm-1146 842c0,1064 1259,1756 2130,1125 785,-568 737,-1598 181,-2105 -95,-87 -269,-207 -388,-263 -880,-413 -1923,284 -1923,1243z"/>
  <rect class="fil0" x="7514" y="6069" width="535" height="3164" rx="268" ry="400"/>
  <circle class="fil1" cx="7776" cy="10758" r="900"/>
 </g>
</svg>
