<?xml version="1.0" encoding="UTF-8"?>
<!DOCTYPE svg PUBLIC "-//W3C//DTD SVG 1.1//EN" "http://www.w3.org/Graphics/SVG/1.1/DTD/svg11.dtd">
<!-- Creator: CorelDRAW -->
<svg xmlns="http://www.w3.org/2000/svg" xml:space="preserve" width="100mm" height="100mm" version="1.1" style="shape-rendering:geometricPrecision; text-rendering:geometricPrecision; image-rendering:optimizeQuality; fill-rule:evenodd; clip-rule:evenodd"
viewBox="0 0 10000 10000"
 xmlns:xlink="http://www.w3.org/1999/xlink"
 xmlns:xodm="http://www.corel.com/coreldraw/odm/2003">
 <defs>
  <style type="text/css">
   <![CDATA[
    .fil1 {fill:#FF5D00;fill-rule:nonzero}
    .fil0 {fill:white;fill-rule:nonzero}
   ]]>
  </style>
 </defs>
 <g id="Camada_x0020_1">
  <metadata id="CorelCorpID_0Corel-Layer"/>
  <g>
   <path class="fil0" d="M7264.61 2073l-4556.04 0 0 -346 4556.04 0 0 0 0 346zm964.7 635.57l-312.26 0 0 0 -0.81 -31.71 -2.39 -31.2 -3.94 -30.74 -5.45 -30.3 -6.94 -29.83 -8.38 -29.35 -9.81 -28.84 -11.22 -28.31 -12.6 -27.75 -13.95 -27.14 -15.28 -26.49 -16.58 -25.8 -17.84 -25.04 -19.08 -24.24 -20.28 -23.39 -21.45 -22.48 -22.56 -21.53 -23.65 -20.49 -24.68 -19.43 -25.68 -18.3 -26.64 -17.12 -27.54 -15.88 -28.4 -14.6 -29.22 -13.27 -29.99 -11.88 -30.72 -10.45 -31.4 -8.97 -32.06 -7.45 -32.65 -5.87 -33.21 -4.26 -33.75 -2.58 -34.29 -0.88 0 -346 48.61 1.24 48.09 3.68 47.47 6.08 46.77 8.41 46.02 10.69 45.2 12.91 44.3 15.07 43.37 17.18 42.36 19.23 41.3 21.22 40.18 23.18 39 25.06 37.76 26.9 36.46 28.69 35.09 30.43 33.68 32.11 32.19 33.76 30.64 35.35 29.04 36.9 27.36 38.4 25.6 39.84 23.78 41.23 21.87 42.56 19.9 43.83 17.84 45.05 15.71 46.18 13.5 47.25 11.2 48.25 8.83 49.12 6.4 49.94 3.87 50.64 1.31 51.19 0 0zm-312.26 4582.86l0 -4582.86 312.26 0 0 4582.86 0 0 -312.26 0zm-652.44 981.57l0 -346 0 0 34.29 -0.88 33.75 -2.58 33.21 -4.26 32.65 -5.87 32.06 -7.45 31.4 -8.97 30.72 -10.45 29.99 -11.88 29.22 -13.27 28.4 -14.6 27.54 -15.88 26.64 -17.12 25.68 -18.3 24.68 -19.43 23.65 -20.49 22.56 -21.53 21.45 -22.48 20.28 -23.39 19.08 -24.24 17.84 -25.04 16.58 -25.8 15.28 -26.49 13.95 -27.14 12.6 -27.75 11.22 -28.31 9.81 -28.84 8.38 -29.35 6.94 -29.83 5.45 -30.3 3.94 -30.74 2.39 -31.2 0.81 -31.71 312.26 0 -1.31 51.19 -3.87 50.64 -6.4 49.94 -8.83 49.12 -11.2 48.25 -13.5 47.25 -15.71 46.18 -17.84 45.05 -19.9 43.83 -21.87 42.56 -23.78 41.23 -25.6 39.84 -27.36 38.4 -29.04 36.9 -30.64 35.35 -32.19 33.76 -33.68 32.11 -35.09 30.43 -36.46 28.69 -37.76 26.9 -39 25.06 -40.18 23.18 -41.3 21.22 -42.36 19.23 -43.37 17.18 -44.3 15.07 -45.2 12.91 -46.02 10.69 -46.77 8.41 -47.47 6.08 -48.09 3.68 -48.61 1.24 0 0zm-4556.04 -346l4556.04 0 0 346 -4556.04 0 0 0 0 -346zm-964.71 -635.57l312.26 0 0 0 0.81 31.69 2.4 31.22 3.94 30.76 5.44 30.28 6.94 29.83 8.38 29.35 9.81 28.84 11.22 28.31 12.59 27.73 13.97 27.16 15.28 26.5 16.57 25.79 17.84 25.04 19.08 24.24 20.28 23.39 21.43 22.47 22.58 21.53 23.66 20.5 24.68 19.43 25.68 18.3 26.64 17.12 27.54 15.88 28.4 14.6 29.22 13.27 29.99 11.88 30.72 10.45 31.4 8.97 32.06 7.45 32.65 5.87 33.21 4.26 33.75 2.58 34.29 0.88 0 346 -48.61 -1.24 -48.09 -3.68 -47.47 -6.08 -46.77 -8.41 -46.02 -10.69 -45.2 -12.91 -44.3 -15.07 -43.37 -17.18 -42.36 -19.23 -41.3 -21.22 -40.18 -23.18 -39 -25.06 -37.76 -26.9 -36.46 -28.69 -35.08 -30.42 -33.68 -32.11 -32.21 -33.77 -30.64 -35.35 -29.04 -36.9 -27.36 -38.4 -25.61 -39.85 -23.76 -41.22 -21.87 -42.54 -19.91 -43.85 -17.84 -45.05 -15.71 -46.18 -13.5 -47.25 -11.2 -48.25 -8.84 -49.14 -6.38 -49.92 -3.88 -50.62 -1.31 -51.21 0 0zm312.26 -4582.86l0 4582.86 -312.26 0 0 -4582.86 0 0 312.26 0zm652.45 -981.57l0 346 0 0 -34.29 0.88 -33.75 2.58 -33.21 4.26 -32.65 5.87 -32.06 7.45 -31.4 8.97 -30.72 10.45 -29.99 11.88 -29.22 13.27 -28.4 14.6 -27.54 15.88 -26.64 17.12 -25.68 18.3 -24.68 19.43 -23.66 20.5 -22.58 21.53 -21.43 22.47 -20.28 23.39 -19.08 24.24 -17.84 25.04 -16.57 25.79 -15.28 26.5 -13.97 27.16 -12.59 27.73 -11.22 28.31 -9.81 28.84 -8.38 29.35 -6.94 29.83 -5.44 30.28 -3.94 30.76 -2.4 31.22 -0.81 31.69 -312.26 0 1.31 -51.21 3.88 -50.62 6.38 -49.92 8.84 -49.14 11.2 -48.25 13.5 -47.25 15.71 -46.18 17.84 -45.05 19.91 -43.85 21.87 -42.54 23.76 -41.22 25.61 -39.85 27.36 -38.4 29.04 -36.9 30.64 -35.35 32.21 -33.77 33.68 -32.11 35.08 -30.42 36.46 -28.69 37.76 -26.9 39 -25.06 40.18 -23.18 41.3 -21.22 42.36 -19.23 43.37 -17.18 44.3 -15.07 45.2 -12.91 46.02 -10.69 46.77 -8.41 47.47 -6.08 48.09 -3.68 48.61 -1.24 0 0z"/>
  </g>
  <g>
   <polygon class="fil0" points="8099.99,4427 1908.44,4427 1908.44,4081 8099.99,4081 "/>
  </g>
  <g>
   <path class="fil1" d="M2996.17 3087.23l258.48 0 0 0 -0.62 24.41 -1.84 24.15 -3.02 23.82 -4.2 23.53 -5.34 23.12 -6.43 22.65 -7.5 22.18 -8.56 21.7 -9.55 21.12 -10.52 20.55 -11.49 19.98 -12.38 19.31 -13.26 18.65 -14.1 17.94 -14.95 17.27 -15.75 16.51 -16.48 15.71 -17.23 14.93 -17.96 14.11 -18.63 13.24 -19.27 12.35 -19.94 11.47 -20.5 10.5 -21.06 9.52 -21.64 8.54 -22.12 7.47 -22.56 6.41 -23.06 5.33 -23.44 4.18 -23.73 3.01 -24.06 1.83 -24.32 0.62 0 -259.7 11.32 -0.28 11.1 -0.85 10.93 -1.39 10.68 -1.9 10.44 -2.41 10.3 -2.93 10.06 -3.41 9.8 -3.86 9.62 -4.36 9.36 -4.78 9.06 -5.21 8.83 -5.67 8.53 -6.06 8.2 -6.45 7.89 -6.83 7.58 -7.23 7.19 -7.53 6.81 -7.87 6.46 -8.22 6.04 -8.49 5.64 -8.79 5.19 -9.02 4.76 -9.31 4.33 -9.56 3.84 -9.76 3.38 -9.98 2.91 -10.23 2.4 -10.38 1.88 -10.57 1.38 -10.84 0.84 -11.01 0.28 -11.23 0 0zm-217.03 -216.4l0 -259.7 0 0 24.32 0.62 24.06 1.83 23.73 3.01 23.44 4.18 23.06 5.33 22.56 6.41 22.12 7.47 21.61 8.53 21.09 9.52 20.53 10.53 19.89 11.43 19.29 12.36 18.65 13.27 17.94 14.09 17.21 14.91 16.5 15.72 15.75 16.52 14.93 17.24 14.13 17.98 13.26 18.65 12.37 19.3 11.49 19.98 10.51 20.53 9.56 21.12 8.56 21.73 7.5 22.17 6.43 22.63 5.34 23.13 4.2 23.53 3.02 23.82 1.84 24.15 0.62 24.41 -258.48 0 -0.28 -11.23 -0.84 -11.01 -1.38 -10.84 -1.88 -10.57 -2.4 -10.37 -2.91 -10.23 -3.38 -10.01 -3.84 -9.73 -4.32 -9.54 -4.77 -9.33 -5.19 -9.02 -5.65 -8.8 -6.04 -8.51 -6.43 -8.18 -6.83 -7.88 -7.19 -7.54 -7.56 -7.2 -7.91 -6.85 -8.22 -6.47 -8.51 -6.05 -8.81 -5.64 -9.11 -5.25 -9.33 -4.77 -9.59 -4.34 -9.83 -3.87 -10.06 -3.41 -10.3 -2.93 -10.44 -2.41 -10.68 -1.9 -10.93 -1.39 -11.1 -0.85 -11.32 -0.28 0 0zm-217.03 216.4l-258.48 0 0 0 0.62 -24.41 1.84 -24.15 3.02 -23.82 4.2 -23.53 5.34 -23.13 6.43 -22.63 7.5 -22.17 8.56 -21.73 9.56 -21.12 10.51 -20.53 11.49 -19.98 12.37 -19.3 13.26 -18.65 14.13 -17.98 14.93 -17.24 15.75 -16.52 16.5 -15.72 17.21 -14.91 17.94 -14.09 18.65 -13.27 19.29 -12.36 19.89 -11.43 20.53 -10.53 21.09 -9.52 21.61 -8.53 22.12 -7.47 22.56 -6.41 23.06 -5.33 23.44 -4.18 23.73 -3.01 24.06 -1.83 24.32 -0.62 0 259.7 -11.32 0.28 -11.1 0.85 -10.93 1.39 -10.68 1.9 -10.44 2.41 -10.3 2.93 -10.06 3.41 -9.83 3.87 -9.59 4.34 -9.33 4.77 -9.11 5.25 -8.81 5.64 -8.51 6.05 -8.22 6.47 -7.91 6.85 -7.56 7.2 -7.19 7.54 -6.83 7.88 -6.43 8.18 -6.04 8.51 -5.65 8.8 -5.19 9.02 -4.77 9.33 -4.32 9.54 -3.84 9.73 -3.38 10.01 -2.91 10.23 -2.4 10.37 -1.88 10.57 -1.38 10.84 -0.84 11.01 -0.28 11.23 0 0zm217.03 216.41l0 259.7 0 0 -24.32 -0.62 -24.06 -1.83 -23.73 -3.01 -23.44 -4.18 -23.06 -5.33 -22.56 -6.41 -22.12 -7.47 -21.64 -8.54 -21.06 -9.52 -20.5 -10.5 -19.94 -11.47 -19.27 -12.35 -18.63 -13.24 -17.96 -14.11 -17.23 -14.93 -16.48 -15.71 -15.75 -16.51 -14.95 -17.27 -14.1 -17.94 -13.26 -18.65 -12.38 -19.31 -11.49 -19.98 -10.52 -20.55 -9.55 -21.12 -8.56 -21.7 -7.5 -22.18 -6.43 -22.65 -5.34 -23.12 -4.2 -23.53 -3.02 -23.82 -1.84 -24.15 -0.62 -24.41 258.48 0 0.28 11.23 0.84 11.01 1.38 10.84 1.88 10.57 2.4 10.38 2.91 10.23 3.38 9.98 3.84 9.76 4.33 9.56 4.76 9.31 5.19 9.02 5.64 8.79 6.04 8.49 6.46 8.22 6.81 7.87 7.19 7.53 7.58 7.23 7.89 6.83 8.2 6.45 8.53 6.06 8.83 5.67 9.06 5.21 9.36 4.78 9.62 4.36 9.8 3.86 10.06 3.41 10.3 2.93 10.44 2.41 10.68 1.9 10.93 1.39 11.1 0.85 11.32 0.28 0 0z"/>
  </g>
  <g>
   <path class="fil1" d="M4208.12 3087.23l258.48 0 0 0 -0.62 24.41 -1.84 24.15 -3.02 23.82 -4.2 23.53 -5.34 23.12 -6.43 22.65 -7.5 22.18 -8.56 21.7 -9.55 21.12 -10.52 20.55 -11.49 19.98 -12.38 19.31 -13.26 18.65 -14.1 17.94 -14.95 17.27 -15.75 16.51 -16.48 15.71 -17.23 14.93 -17.96 14.11 -18.63 13.24 -19.27 12.35 -19.94 11.47 -20.5 10.5 -21.06 9.52 -21.64 8.54 -22.12 7.47 -22.56 6.41 -23.06 5.33 -23.44 4.18 -23.73 3.01 -24.06 1.83 -24.32 0.62 0 -259.7 11.32 -0.28 11.1 -0.85 10.93 -1.39 10.68 -1.9 10.44 -2.41 10.3 -2.93 10.06 -3.41 9.8 -3.86 9.62 -4.36 9.36 -4.78 9.06 -5.21 8.83 -5.67 8.53 -6.06 8.2 -6.45 7.89 -6.83 7.58 -7.23 7.19 -7.53 6.81 -7.87 6.46 -8.22 6.04 -8.49 5.64 -8.79 5.19 -9.02 4.76 -9.31 4.33 -9.56 3.84 -9.76 3.38 -9.98 2.91 -10.23 2.4 -10.38 1.88 -10.57 1.38 -10.84 0.84 -11.01 0.28 -11.23 0 0zm-217.03 -216.4l0 -259.7 0 0 24.32 0.62 24.06 1.83 23.73 3.01 23.44 4.18 23.06 5.33 22.56 6.41 22.12 7.47 21.61 8.53 21.09 9.52 20.53 10.53 19.89 11.43 19.29 12.36 18.65 13.27 17.94 14.09 17.21 14.91 16.5 15.72 15.75 16.52 14.93 17.24 14.13 17.98 13.26 18.65 12.37 19.3 11.49 19.98 10.51 20.53 9.56 21.12 8.56 21.73 7.5 22.17 6.43 22.63 5.34 23.13 4.2 23.53 3.02 23.82 1.84 24.15 0.62 24.41 -258.48 0 -0.28 -11.23 -0.84 -11.01 -1.38 -10.84 -1.88 -10.57 -2.4 -10.37 -2.91 -10.23 -3.38 -10.01 -3.84 -9.73 -4.32 -9.54 -4.77 -9.33 -5.19 -9.02 -5.65 -8.8 -6.04 -8.51 -6.43 -8.18 -6.83 -7.88 -7.19 -7.54 -7.56 -7.2 -7.91 -6.85 -8.22 -6.47 -8.51 -6.05 -8.81 -5.64 -9.11 -5.25 -9.33 -4.77 -9.59 -4.34 -9.83 -3.87 -10.06 -3.41 -10.3 -2.93 -10.44 -2.41 -10.68 -1.9 -10.93 -1.39 -11.1 -0.85 -11.32 -0.28 0 0zm-217.03 216.4l-258.48 0 0 0 0.62 -24.41 1.84 -24.15 3.02 -23.82 4.2 -23.53 5.34 -23.13 6.43 -22.63 7.5 -22.17 8.56 -21.73 9.56 -21.12 10.51 -20.53 11.49 -19.98 12.37 -19.3 13.26 -18.65 14.13 -17.98 14.93 -17.24 15.75 -16.52 16.5 -15.72 17.21 -14.91 17.94 -14.09 18.65 -13.27 19.29 -12.36 19.89 -11.43 20.53 -10.53 21.09 -9.52 21.61 -8.53 22.12 -7.47 22.56 -6.41 23.06 -5.33 23.44 -4.18 23.73 -3.01 24.06 -1.83 24.32 -0.62 0 259.7 -11.32 0.28 -11.1 0.85 -10.93 1.39 -10.68 1.9 -10.44 2.41 -10.3 2.93 -10.06 3.41 -9.83 3.87 -9.59 4.34 -9.33 4.77 -9.11 5.25 -8.81 5.64 -8.51 6.05 -8.22 6.47 -7.91 6.85 -7.56 7.2 -7.19 7.54 -6.83 7.88 -6.43 8.18 -6.04 8.51 -5.65 8.8 -5.19 9.02 -4.77 9.33 -4.32 9.54 -3.84 9.73 -3.38 10.01 -2.91 10.23 -2.4 10.37 -1.88 10.57 -1.38 10.84 -0.84 11.01 -0.28 11.23 0 0zm217.03 216.41l0 259.7 0 0 -24.32 -0.62 -24.06 -1.83 -23.73 -3.01 -23.44 -4.18 -23.06 -5.33 -22.56 -6.41 -22.12 -7.47 -21.64 -8.54 -21.06 -9.52 -20.5 -10.5 -19.94 -11.47 -19.27 -12.35 -18.63 -13.24 -17.96 -14.11 -17.23 -14.93 -16.48 -15.71 -15.75 -16.51 -14.95 -17.27 -14.1 -17.94 -13.26 -18.65 -12.38 -19.31 -11.49 -19.98 -10.52 -20.55 -9.55 -21.12 -8.56 -21.7 -7.5 -22.18 -6.43 -22.65 -5.34 -23.12 -4.2 -23.53 -3.02 -23.82 -1.84 -24.15 -0.62 -24.41 258.48 0 0.28 11.23 0.84 11.01 1.38 10.84 1.88 10.57 2.4 10.38 2.91 10.23 3.38 9.98 3.84 9.76 4.33 9.56 4.76 9.31 5.19 9.02 5.64 8.79 6.04 8.49 6.46 8.22 6.81 7.87 7.19 7.53 7.58 7.23 7.89 6.83 8.2 6.45 8.53 6.06 8.83 5.67 9.06 5.21 9.36 4.78 9.62 4.36 9.8 3.86 10.06 3.41 10.3 2.93 10.44 2.41 10.68 1.9 10.93 1.39 11.1 0.85 11.32 0.28 0 0z"/>
  </g>
  <g>
   <path class="fil1" d="M5420.07 3087.23l258.48 0 0 0 -0.62 24.41 -1.84 24.15 -3.02 23.82 -4.2 23.53 -5.34 23.12 -6.43 22.65 -7.5 22.18 -8.56 21.7 -9.55 21.12 -10.52 20.55 -11.49 19.98 -12.38 19.31 -13.26 18.65 -14.1 17.94 -14.95 17.27 -15.75 16.51 -16.48 15.71 -17.23 14.93 -17.96 14.11 -18.63 13.24 -19.27 12.35 -19.94 11.47 -20.5 10.5 -21.06 9.52 -21.64 8.54 -22.12 7.47 -22.56 6.41 -23.06 5.33 -23.44 4.18 -23.73 3.01 -24.06 1.83 -24.32 0.62 0 -259.7 11.32 -0.28 11.1 -0.85 10.93 -1.39 10.68 -1.9 10.44 -2.41 10.3 -2.93 10.06 -3.41 9.8 -3.86 9.62 -4.36 9.36 -4.78 9.06 -5.21 8.83 -5.67 8.53 -6.06 8.2 -6.45 7.89 -6.83 7.58 -7.23 7.19 -7.53 6.81 -7.87 6.46 -8.22 6.04 -8.49 5.64 -8.79 5.19 -9.02 4.76 -9.31 4.33 -9.56 3.84 -9.76 3.38 -9.98 2.91 -10.23 2.4 -10.38 1.88 -10.57 1.38 -10.84 0.84 -11.01 0.28 -11.23 0 0zm-217.03 -216.4l0 -259.7 0 0 24.32 0.62 24.06 1.83 23.73 3.01 23.44 4.18 23.06 5.33 22.56 6.41 22.12 7.47 21.61 8.53 21.09 9.52 20.53 10.53 19.89 11.43 19.29 12.36 18.65 13.27 17.94 14.09 17.21 14.91 16.5 15.72 15.75 16.52 14.93 17.24 14.13 17.98 13.26 18.65 12.37 19.3 11.49 19.98 10.51 20.53 9.56 21.12 8.56 21.73 7.5 22.17 6.43 22.63 5.34 23.13 4.2 23.53 3.02 23.82 1.84 24.15 0.62 24.41 -258.48 0 -0.28 -11.23 -0.84 -11.01 -1.38 -10.84 -1.88 -10.57 -2.4 -10.37 -2.91 -10.23 -3.38 -10.01 -3.84 -9.73 -4.32 -9.54 -4.77 -9.33 -5.19 -9.02 -5.65 -8.8 -6.04 -8.51 -6.43 -8.18 -6.83 -7.88 -7.19 -7.54 -7.56 -7.2 -7.91 -6.85 -8.22 -6.47 -8.51 -6.05 -8.81 -5.64 -9.11 -5.25 -9.33 -4.77 -9.59 -4.34 -9.83 -3.87 -10.06 -3.41 -10.3 -2.93 -10.44 -2.41 -10.68 -1.9 -10.93 -1.39 -11.1 -0.85 -11.32 -0.28 0 0zm-217.03 216.4l-258.48 0 0 0 0.62 -24.41 1.84 -24.15 3.02 -23.82 4.2 -23.53 5.34 -23.13 6.43 -22.63 7.5 -22.17 8.56 -21.73 9.56 -21.12 10.51 -20.53 11.49 -19.98 12.37 -19.3 13.26 -18.65 14.13 -17.98 14.93 -17.24 15.75 -16.52 16.5 -15.72 17.21 -14.91 17.94 -14.09 18.65 -13.27 19.29 -12.36 19.89 -11.43 20.53 -10.53 21.09 -9.52 21.61 -8.53 22.12 -7.47 22.56 -6.41 23.06 -5.33 23.44 -4.18 23.73 -3.01 24.06 -1.83 24.32 -0.62 0 259.7 -11.32 0.28 -11.1 0.85 -10.93 1.39 -10.68 1.9 -10.44 2.41 -10.3 2.93 -10.06 3.41 -9.83 3.87 -9.59 4.34 -9.33 4.77 -9.11 5.25 -8.81 5.64 -8.51 6.05 -8.22 6.47 -7.91 6.85 -7.56 7.2 -7.19 7.54 -6.83 7.88 -6.43 8.18 -6.04 8.51 -5.65 8.8 -5.19 9.02 -4.77 9.33 -4.32 9.54 -3.84 9.73 -3.38 10.01 -2.91 10.23 -2.4 10.37 -1.88 10.57 -1.38 10.84 -0.84 11.01 -0.28 11.23 0 0zm217.03 216.41l0 259.7 0 0 -24.32 -0.62 -24.06 -1.83 -23.73 -3.01 -23.44 -4.18 -23.06 -5.33 -22.56 -6.41 -22.12 -7.47 -21.64 -8.54 -21.06 -9.52 -20.5 -10.5 -19.94 -11.47 -19.27 -12.35 -18.63 -13.24 -17.96 -14.11 -17.23 -14.93 -16.48 -15.71 -15.75 -16.51 -14.95 -17.27 -14.1 -17.94 -13.26 -18.65 -12.38 -19.31 -11.49 -19.98 -10.52 -20.55 -9.55 -21.12 -8.56 -21.7 -7.5 -22.18 -6.43 -22.65 -5.34 -23.12 -4.2 -23.53 -3.02 -23.82 -1.84 -24.15 -0.62 -24.41 258.48 0 0.28 11.23 0.84 11.01 1.38 10.84 1.88 10.57 2.4 10.38 2.91 10.23 3.38 9.98 3.84 9.76 4.33 9.56 4.76 9.31 5.19 9.02 5.64 8.79 6.04 8.49 6.46 8.22 6.81 7.87 7.19 7.53 7.58 7.23 7.89 6.83 8.2 6.45 8.53 6.06 8.83 5.67 9.06 5.21 9.36 4.78 9.62 4.36 9.8 3.86 10.06 3.41 10.3 2.93 10.44 2.41 10.68 1.9 10.93 1.39 11.1 0.85 11.32 0.28 0 0z"/>
  </g>
 </g>
</svg>
