<?xml version="1.0" encoding="UTF-8"?>
<!DOCTYPE svg PUBLIC "-//W3C//DTD SVG 1.1//EN" "http://www.w3.org/Graphics/SVG/1.1/DTD/svg11.dtd">
<!-- Creator: CorelDRAW X8 -->
<svg xmlns="http://www.w3.org/2000/svg" xml:space="preserve" width="15cm" height="13cm" version="1.1" style="shape-rendering:geometricPrecision; text-rendering:geometricPrecision; image-rendering:optimizeQuality; fill-rule:evenodd; clip-rule:evenodd"
viewBox="0 0 15000 13000"
 xmlns:xlink="http://www.w3.org/1999/xlink">
 <defs>
  <style type="text/css">
   <![CDATA[
    .fil0 {fill:#A8FF21}
    .fil1 {fill:white}
   ]]>
  </style>
 </defs>
 <g id="Layer_x0020_1">
  <metadata id="CorelCorpID_0Corel-Layer"/>
  <g id="_1950146809264">
   <path class="fil0" d="M7444 3733c-615,0 -1115,-508 -1115,-1132 0,-625 500,-1133 1115,-1133 614,0 1114,508 1114,1133 0,624 -500,1132 -1114,1132zm0 -1559c-236,-11 -436,172 -446,408 -10,236 173,435 409,446 235,10 435,-173 445,-409 1,-6 1,-12 1,-18 4,-231 -178,-422 -409,-427l0 0zm0 0z"/>
   <path class="fil0" d="M4958 3733c-614,0 -1114,-508 -1114,-1132 0,-625 500,-1133 1114,-1133 615,0 1115,508 1115,1133 0,624 -500,1132 -1115,1132zm0 -1559c-235,-11 -435,172 -445,408 -11,236 172,435 408,446 236,10 436,-173 446,-409 0,-6 0,-12 0,-18 5,-231 -178,-422 -409,-427l0 0zm0 0z"/>
   <path class="fil0" d="M2625 3733c-614,0 -1114,-508 -1114,-1132 0,-625 500,-1133 1114,-1133 615,0 1115,508 1115,1133 0,624 -500,1132 -1115,1132zm0 -1559c-236,-11 -435,172 -445,408 -11,236 172,435 408,446 236,10 435,-173 446,-409 0,-6 0,-12 0,-18 5,-231 -178,-422 -409,-427l0 0zm0 0z"/>
  </g>
  <path class="fil1" d="M14556 1984c0,-974 -790,-1763 -1764,-1763l-10584 0c-974,0 -1764,789 -1764,1763l0 9032c0,974 790,1763 1764,1763l10584 0c974,0 1764,-789 1764,-1763l0 -9032zm-12348 -1058l10584 0c584,1 1057,474 1058,1058l0 2611 -12700 0 0 -2611c1,-584 474,-1057 1058,-1058zm10584 11148l-10584 0c-584,-1 -1057,-474 -1058,-1058l0 -5715 12700 0 0 5715c-1,584 -474,1057 -1058,1058l0 0zm0 0z"/>
 </g>
</svg>
